<?xml version="1.0" encoding="UTF-8"?>
<svg id="Layer_1" xmlns="http://www.w3.org/2000/svg" version="1.1" viewBox="0 0 1080 1080">
  <!-- Generator: Adobe Illustrator 30.5.1, SVG Export Plug-In . SVG Version: 2.1.4 Build 3)  -->
  <defs>
    <style>
      .st0 {
        fill: #ffd000;
      }
    </style>
  </defs>
  <rect class="st0" width="1080" height="1080"/>
  <path d="M992.47,128.51l-.43-20.4-73.46-53.06c-1.28-.92-1.92-1.06-3.4-.3l-86.28,44.07c-23.64,12.83-46.41,26.5-68.54,41.61-2.27,1.55-3.38,1.18-5.62-.07-53.96-30.09-117.71-48.39-178.9-55.17l-9.62-.85-15.18-.57h-26.14s-15.74.65-15.74.65c-24.26,1.71-47.82,5.68-71.63,11.15-38.33,8.8-75.19,22.03-109.95,40.16l-11.11,6.3-6.01-3.35c-14.7-10.2-29.6-19.5-45.28-28.42-34.58-19.67-69.74-37.66-105.48-55-2.54-1.23-3.91-.74-5.99.75l-19.62,14-29.33,21.13-21.03,15.48c-1.98,1.46-2.83,2.7-2.83,5.38l-.05,104.9,6.64,9.1,24.08,31.65.08,47.41c0,1.75,1.27,3.81,2.26,5.34l39.32,61.45c1.17,1.83,1.68,3.32,1,5.47-7.05,22.33-15.31,50.49-17.73,73.33l-.22,6.7.49,15.31.41,6.55c2.24,35.88,6.91,71.09,13.31,106.52l6.76,37.37c.28,1.53-.14,3.65-.18,5.21l-.46,16.44-.67,14.62c-1.8,39.39-5.63,78.24-12.43,117.26l-8.46,48.54-11.07,51.47,46.1,35.3,44.96,29.3,45.23,23.8,25.59,11.52c.19.11,1.71.34,1.6,0-.1-.33-.45-1.38-.78-1.73l-7.58-8.36-25.63-29.96-11.82-14.34-14.15-18.36-20.34-27.42c-10.41,2.42-16.73-.94-24.09-8.15-3.72-3.65-7.06-7.42-9.42-12.07l-5-9.85c8.3,1.69,18,.52,17.24-5.86-1.41-11.79-4.9-22.95-10.99-33.14-2.13-3.57-2.55-6.19-2.01-10.35l3.17-24.36,1.25-.8c9.28,5.16,15.86,13.39,20.73,22.67-2.17,3.67-8.19,5.24-10.66,9.78l12.39-5.31c1.06,3.42,2.27,6.43,2.26,9.64l-.03,14.5c-.02,6.89-3.56,12.79-6.6,19.35l15.62,10.8,2.15-.66c8.59-19.52,9.71-41.04,4.27-61.91,37.51-16.55,79.89-27.99,120.06-31.12l10.2-.32c20.05,13.04,51.22,21.67,74.69,21.75l4.95.02c10.37-.67,20.65-.88,30.57-4.85l-33.39-7.25c-12.75-2.77-25.07-5.57-37.18-10.32l-22.56-8.85-16.35-9.73c-2.05-5.98,2.39-10.24-2.89-11.08l-21.4-3.4-.76,22.09-23.75,4.44-11.08-11.29-8.81-9.79-9.02-10.39-25.47-1.64-12.55.02-20.42.52,8.38,10.2,13.33,14.58,13.12,12.91,6.72,6.01c.59.53,1.45,2.08,1.08,2.66-.31.48-1.3.79-2.17,1.15-12.75,5.13-24.89,10.98-37.18,17.67-7.07-20.63-18.38-35.13-35.46-47.53l.96-14.41,1.21-11.58,2.16-26.28c.07-.19.4-1.15.55-1.01l.82.76,18.48,26.17c-5.45,2.13-10.53,3.5-15.46,6.58l12.15-.9,35.89-3.48,7.67-.48,41.11-.02,8.14.52,8.98.79c15.83,1.39,31.28,3.67,46.82,7.05,6.89,1.5,11.5,7.37,17.84,7.81,2.47.17,5.2-1,6.69-2.44,3.51-3.4,2.8-12.08-1.66-14.41l-18.59-9.7c-1.37-.72-2.45-2.01-2.15-3.69l2.56-14.26c.94-5.25,3.5-8.67,6.32-13.02l35.01-54.16c1.76-2.73,4.47-4.55,6.73-6.73l16.15-15.62c4.72-4.57,8.44-9,11.39-14.89l13.71-27.35,10.45-20.61-3.07-9.18-29.22-72.13c-3.28-8.09-7.43-15.06-13.24-21.71l2.15,12.66c-1.89-.43-3.15-1.4-4.94-2.29l-29.46-14.66-28.71-13.74-71.34,13.17,33.11,17.64c3.95,13.63,9.93,26.32,19.19,37.06,11.82,13.71,31.61,21.27,49.41,23.13l22.6,2.36c1.84.19,3.61.43,5.19,1.17l12.42,30.75-14.32,21.86-39.37,61.41-14.66,23.13-19.26,31.37c-2.07,9.69-3.16,18.81-4.06,29.14l-11.74-.36-6.5-.48-16.49-.51h-15.03s-19.96.35-19.96.35l-8.14-12.37c-10.66-16.2-20.09-32.95-27.13-51.07l-5.38-13.85-7.08,14.43-4.72,11.69c-1.84-2.16-2.7-4.1-3.83-6.44l-3.2-6.64c-3.3-6.83-6.31-13.47-7.95-21.06-4.82-22.34-8.4-44.5-11.6-67.21-.37-2.63.92-4.7,2.09-6.74,2.52-4.4,6.14-8.27,11.49-8.83,11.47-1.19,18.69,19.07,12.33,33.22-3.28,7.3-10.01,8.08-8,15.93l4.7,18.33c7.97-2.04,16.34-11.29,19.67-18.55,8.05-17.53,8-40.85.14-58.39-2.9-6.47-6.87-12.37-12.59-16.35-8.82-6.13-14.01-1.43-20.74,3.84l-12.45,9.74-1.41-8.19-.91-8.21-1.28-11.52c7.73-2.47,14.16-6.27,19.24-12.21,13.41-15.69,18.51-36.47,12.83-56.32-3.12-10.92-9.9-20.18-20.12-25.23-.37-1.71-.2-3.64.47-5.38,7.3-19.07,15.45-37.27,24.29-55.73l19.25-36.9c-3.63,1.61-5.94,4.35-8.62,6.93l-14.18,13.63-16.76,16.29-3.27,3.15-5.07,4.8c-.29.27-.97.72-1.31.79-.34.06-.94-.45-1.4-.81l-31.66-49.13,12.64-35.08-43.67-55.25.05-82.58,22.71-16.09,21.59-15.54c.14-.09.99-.73,1.19-.69l2.05.36,24.28,12.31,15.68,8.17,24.93,13.27c12.28,6.54,23.92,13.02,35.7,20.56l53.69,34.4,15.68,9.98c.5.32,1.95.89,2.42.55.37-.28.86-1.08,1.13-1.67l10.27-23.25c1.37-3.1,2.85-5.46,5.86-7,11.7-5.99,23.31-11.23,35.61-15.96.51-.2,1.87-.4,2.05.02l.78,1.85c5.07,17.8,20.28,29.9,38.66,31.15l7.69.07c10.51-1.13,20.83-4.52,28.71-11.31,7.4-6.54,12.1-14.03,13.52-23.92.12-.63-.79-2.38-1.46-3.14l-17.14-4.4-3,.74c-2.1,10.91-10.94,18.46-21.68,19.03-18.24.97-26.38-18.14-22.99-19.11l19.96-5.74c20.07-5.16,40.14-8.66,60.75-11.02,2.92-.33,3.58.71,4.66,3.03l8.31,17.73,12.88,27.23,17.97,38.22c.15.31.48.93.7.85l1.07-.42,19.2-41,20.71-43.66c.67-1.42,1.4-2.39,2.82-2.21,15.2,1.89,29.77,3.96,44.66,7.15l37.16,9.73c.52.51,1.14,1.77.97,2.35-3.11,11.11-13.75,18.06-25.06,16.72-10.54-1.29-18.52-8.48-20.59-18.88l-1.17-.66c-.14-.08-1.13-.04-1.28,0l-10.23,2.51-1,.24c-2.85.69-5.56,1.56-7.85,3.13.81,9.65,5.21,17.55,12.02,24.09,7.95,7.63,18.64,11.57,29.7,12.7,13.65,1.39,28.75-3.76,37.74-14.02,4.92-5.62,7.8-11.96,10.07-19.67,12.32,4.43,24.09,9.61,35.65,15.55,2.74,1.41,5.58,3.16,6.85,6l10.01,22.5,1.71,3.44c.2.41.85,1.23,1.14,1.52.21.21.9-.2,1.22-.41l15.21-9.9c25.1-16.34,49.81-32.62,75.77-47.58l18.51-10.09,38.74-20.33,23.86-12.04,12.58,8.77,33.02,23.66.49,1.52v80.77s-.77,1.33-.77,1.33l-29.8,37.94-11.34,14.31c-1.38,1.74-1.14,3.74-.38,5.82l10.68,29.37c.61,1.67.08,2.99-.86,4.46l-29.53,45.75c-.51.79-1.3,2.42-1.97,2.19-.57-.2-1.87-1.04-2.29-1.51l-2.76-3.09-12.76-12.74-15.05-14.49-8.73-8.1-6.24-5.78-1.07.75.7,1.12.46.75.44.72,3.46,6.38.41.75.41.76.4.74.41.78.41.77.41.78.38.73.47.72.47.72.42.77,24.13,50.6.37.87.34.79.34.79.35.82.34.8.34.83.34.83.34.83.34.82.34.83.34.82.35.82.34.79.34.8.34.82.34.83.34.82.33.82.34.83.33.83.33.82.33.83.33.83.33.83.33.83.33.83.33.83.33.82.34.83.25.82.29.94.27.92.27.94.15.99-.05,1.19c-7.96,3.12-13.58,9.59-17.49,17.15l-.4.78-.4.76-.41.77-.3.83-.32.86-.32.84-.29.81c-8.78,24.81,2.17,57.22,25.04,68.84l.9.46.84.28.83.28.92.31c.81.27,1.89.5,2.22,1.01.33.51.42,2.16.35,2.76l-1.24,10.53-1.1,10.38-.04,1.34c-.02.6-.39,1.93-.91,2.21-.41.23-1.54-.38-1.91-.67l-8.07-6.52-9.81-6.96c-6.1-4.33-15.23.52-20.04,7.64l-4.72,6.98c-8.44,16.96-9.77,36.53-3.92,54.63,2.5,7.74,6.75,14.35,12.73,19.76l8.24,5.61c.39.27,1.62-.61,1.74-1.07l3.96-15.7c.96-3.8,1.24-7.4-1.89-10.23-5.38-4.86-8.14-11.37-8.05-18.72.07-6.16,1.11-12.25,5.13-16.99,2.4-2.83,5.49-5.42,9.42-4.91,6.1.79,9.98,5.46,12.54,10.65.97,1.96,1.88,3.75,1.49,6.06l-3.49,20.95-8.98,47.21c-.96,5.02-2.86,9.58-5.08,14.13l-7.8,15.94-1.11,1.62c-.18.26-1.06-.65-1.19-.96l-7.38-17.44-2.41-5.07c-.23-.48-1.52-1.52-1.7-1.08l-.63,1.53-11.33,26.45c-8.19,16.77-17.43,32.53-28.13,47.73l-.88.66-17.54-.65-19.91.04-14.59.57-16.99,1.2-.85-7.1c-.85-7.1-.59-15.28-3.46-22.07l-20.93-34.62-11.72-18.53-36.53-57.33-17.72-26.45-.27-2.2,11.11-27.26c.49-2.23,2.28-3.3,4.5-3.5l6.92-.62c23.32-2.1,44.84-4.68,62.97-20.72,11.01-11.1,18.38-24.81,22.62-39.96.17-.4,1.06-1.86,1.68-2.18l13.07-6.78,19.03-10.16-69.95-12.79h-2.55s-27.88,13.4-27.88,13.4l-16.33,8.05-17.13,8.81s-.71-1.11-.67-1.33l1.86-9.41c.08-.42-1.39-.66-1.44-.39-4.9,6.64-8.4,13.35-11.83,20.83l-12.87,31.71-7.37,18.13-11.29,28.21c-.52,1.3-.51,2.62.13,3.88l22.78,45.57c2.53,5.07,4.93,9.29,9,13.22l19.11,18.41c4.5,4.33,8.18,8.35,11.49,13.61l15.89,25.26,13.85,21.52c1.91,2.97,5.09,5.76,5.75,9.27l3.7,19.79c.11.61-.77,1.99-1.35,2.28l-16.93,8.5c-4.92,2.47-7.38,6.44-5.89,12.1,1.18,4.48,6.01,7.3,10.88,5.68l8.89-4.39c3.4-1.68,6.93-3.18,10.71-3.84l18.63-3.26,7.31-.94,24.4-2.66,8.73-.57,15.06-.4h12.8s16.16.43,16.16.43l7.07.49,27.22,2.85,10.36.78,8.11,1.06c.56-.18.42-.79-.24-1.49l-14.52-5.46,19.02-26.46.91,1.39,3.25,35.27,1.19,11.63.08,4.9c-7.12,4.23-12.67,9.6-17.89,15.86-7.81,8.67-13.45,18.7-17.18,29.76-.22.38-.68,1.13-.98,1.07-.31-.06-1.09-.34-1.4-.51-9.73-5.43-19.46-10.05-29.74-14.3l-6.22-2.57-2.11-1.11c-.45-.24.41-1.4.8-1.74l3.5-3.05,5.73-5.28,17.61-17.74,9.88-11.05,5.18-6.25-.87-1.16-20.39-.43-12.9.1-13.49.53-10.55,1.09-8.82,10.48-7.21,7.79-7.29,7.83c-1.92,2.07-3.93,4.41-6.42,5.54l-20.88-4.28c-.57-.12-1.84-.34-1.86-.82l-.08-1.81v-14.65c0-1.6-.56-3.6-1.1-5.31l-13.23,2.04-10.06,1.95v10.1c-7.02,5.41-14.38,9.37-22.66,12.77-18.03,7.41-36.4,12.75-55.49,16.91l-30.13,6.43c-.2.18-.82.7-.8.72l.78.79,21.44,3.51,20.11-.14c18.98-1.43,36.85-6.39,54.15-14.16l13.21-6.87c6.45-.71,12.63.19,19.24.94,37.39,4.21,73.49,14.54,108.14,28.98.78.33,2.22,1.65,2.1,2.39l-2.26,13.9v19.61c.64,9.37,3.46,18.01,6.86,26.6.18.46.56,1.32.91,1.29l1.62-.13,14.4-9.74c.81-1.34.12-3.46-1.12-4.93-5.81-12.03-6.45-25.63-2.56-38.4.47-.34,1.68-.69,2.12-.48l8.49,4.05,1.89.48c.31.08-.11-.82-.33-1.04l-.69-.68-.61-.6-.68-.47-.68-.48-.72-.51-.7-.54-5.27-4.19c-.07-.06-.35-.92-.33-1.01l.11-.71.34-.82.33-.82.43-.78c2.86-5.15,6.32-9.65,10.59-13.71l.6-.57.66-.52.65-.51.66-.51.65-.51.64-.51.64-.52.65-.53.74-.43.7-.42.74-.44.73-.44,1.43-.4,1.06,7.04,2.42,19.15c.22,1.74.25,4.94-.57,6.33-6.67,11.17-10.97,23.06-12.37,35.97-.72,6.64,8.08,8.33,15.96,6.48l.55,1.05-2.65,5.09-4.97,8.37c-3.84,6.48-9.65,11.41-16.49,14.78-3.09,1.52-7.38,1.77-10.68,1.25-2.62-.41-3.44-.39-4.99,1.78-17.44,24.36-36,47.48-55.37,70.3l-11.76,13.86-11.12,12.63-.49,1.07c-.11.24.91.31,1.23.3l34.68-15.85c22.3-10.86,43.34-23.12,64.06-36.89l55.79-40.94,7.9-6.68c-13.24-57.48-23.9-115.51-28.83-174.49l-2.39-28.54-.48-8.12-.47-8.97-.64-14.48-.34-19.03c6.53-33.56,12.2-66.89,16.1-100.87l1.26-10.96,2.54-31.34c.83-10.26,1.55-20.17.82-30.35l-2.26-13.06c-4.17-20.83-9.9-41.14-16.31-61.48l37.56-58.97c1.98-3.11,4.49-6.29,5.54-9.74l.17-48.33,30.69-40.45-.3-88.75ZM355.82,480.8c-15.8-9.64-23.23-30.11-15.8-48.1l24.72,7.81c1.94.61,3.25,2.33,3.39,4.08.34,4.31-5.89,4.41-5.94,4.7-.12.61.11,2.08.5,2.78l10.59,18.66c1.82-1.3,3.07-2.54,4.44-4.28l11.84-15.03,20.61,11.1c-9.44,21.46-35.27,29.91-54.35,18.28ZM170.64,443.06l3.52-18.56c6.42-.35,11.9,10.59,11.89,16.26v4.55c-.81,8.59-5.09,15.91-12.68,19.58-1.25.6-3.03.72-4.29.22-.41-7.53.17-14.71,1.56-22.05ZM684.24,451.42l13.01,16.33c.83,1.05,2.32,1.99,3.76,2.22l10.99-19.56c-2.02-2.02-6.33-1.26-6.5-5.28-.07-1.74,1.18-4.05,3.27-4.7l24.87-7.65c2.81,5.63,2.93,11.25,2.78,17.39-.24,9.73-4.98,18.53-11.75,25.36-6.09,6.14-13.59,9.53-22.24,10.35-16.74,1.6-31.28-7.69-39.01-23.32l20.8-11.13ZM904.95,465.43c-5.46.22-9.36-3.08-12.13-7.1-7.18-10.43-7.4-23.37,2.08-32.41,1.22-1.17,3.24-1.71,4.81-1.07l4.27,22.91c1.07,5.76,1.39,11.25.98,17.67ZM731.35,831.42c-1.46-1.04-2.63-1.76-4.01-2.27l-26.78-9.91c-13.2,6.51-26.6,10.12-40.92,11.13l-20.73.28,14.39,25.53c-13.75,2.86-31.41-.7-44.14-5.81-21.16-8.5-41.05-19.43-60.01-31.9l-.43-13.63-.25-14.81,7.23-7.18,6.65-6.17,7.55-7c2.6-2.41,6.75-4.81,7.91-8.14l4.55-12.99c1.31-3.75,4.91-5.58,8.41-7.27l30.51-14.7c2.89-1.39,4.53-3.91,6.19-6.63,8.88-14.58,17.63-32.36,12.11-48.71l-1.47.2-16.51,18.45-24.83-14.99c-1.8-1.09-4.47-2.04-6.55-1.47l-21.93,5.96-31.51,8.87-49.61-13.98c-2.28-.64-5.88-1.77-7.97-.52l-27.15,16.18-17.5-19.45c-2.97,6.91-2.73,13.95-1,20.93,3.04,12.28,8.71,23.44,16.21,33.57l13.4,6.94,25.48,12.25c4.41,5.79,4.88,13.85,7.61,17.96,2.12,3.18,5.38,5.51,8.13,8.04l6.37,5.87,7.45,7.04,7.07,7-.13,27.61-8.4,5.69c-16.81,10.49-33.98,19.59-52.4,26.97-11.13,4.46-30.53,8.61-41.25,6.33l-2.11-.45c-.46-.1-.04-1.65.16-2.08l13.54-23.53-20.14-.27c-14.55-.95-28.03-4.88-41.26-11.05l-31.29,11.69,13.48,18.53c7.86,8.95,16.87,16.01,27.49,22.02l13.57,56.36,21.79,17.14,22.84,17.76,33.46,26.19,1.52,1.17c1.57,1.21.39-11.96,1.81-18.51l23.08,14.17,19.91,11.4,15.77,8.66,6.56-3.52,52.32-30.97c.9,6.1,1.01,11.31.93,17.01l.48,1.52c.1.3,1.03-.09,1.29-.29l17.38-13.79,55.28-42.87,6.2-5.09,11.99-49.89c.59-2.44,1.05-4.96,2.24-7.06,17.97-9.92,29.56-21.95,39.95-39.51ZM519.17,762.96l-7.5-7.17c.66-5.99,2.17-11.52,1.15-17.37-1.58-9.02-7.21-16.57-13.96-22.38l-7.14-5.04c-5.79-4.08-12.35-4.24-18.93-1.79-4.63-.23-9-4.24-10.93-8.7l8.25-5.63c3.69-2.52,7.43-4.86,11.93-6.09,2.33-.64,5.92.62,8.41,1.34l41.42,12c3.48,1.01,6.37,1.01,9.85,0l44.97-13c1.49-.43,4.75-.13,6.29,0,6.55,3.2,12.62,6.8,18.76,11.13-1.61,4.11-6.22,9.36-10.89,8.66-5.06-.77-9.14-2.32-14.23-.13-5.79,2.48-10.74,6.21-15.32,10.71-5.1,5-8.65,10.99-10.33,18.15-.81,3.45-.33,7.48.06,11.09l.76,7.07-9.55,9.28-7.61,6.34-7.92-44.71-7.53,44.26c-1.52-.61-2.76-1.43-3.91-2.48l-6.13-5.53ZM647.76,909.6l-17.35,13.45-18.09,13.8-8.02,5.96-4.53,2.82-.55-9.24-.83-8.73c-18.58,11.75-37.78,20.34-58.48,26.08-2.05.57-4.1.58-6.46-.09-20.79-5.9-39.72-14.52-57.98-25.95-.73,2.99-.69,5.2-.87,8.02l-.56,8.68c-.17.7-1.88.35-2.62-.19l-15.05-11.12-22.69-17.31-7.51-6.38-4.89-19.61c.8-1.12,2.02-2.01,3.36-2.6l43.52-19.13c18.94-7.39,37.91-12.78,58.19-14.85h20.99c19.91,2.01,38.69,7.33,57.37,14.53l48.15,21.42-5.08,20.44ZM188.37,295.27l72.5-55.79-34.2-21.6-27.13-17.41c5.72-.57,9.84-.45,14.53-.08l13.81.6,18.54.58,16.02.42c3.27.09,6.4,1.14,9.97-.24l-35.37-24.99-32.14-22.43-46.18-32.04-2.5,26.15-1.03,12.82-4.65,55.55,28.93,40.02-.04,44.97,8.95-6.53ZM923.18,217.27l-2.04-24.9-1.36-16.02-1.22-14.59-3.57-39.6-90.95,63.42-22.79,16.22c2.76,1.15,5.24.35,7.77.27l16.34-.52,19.21-.54,12.68-.62c5.51-.27,10.82-.71,16.82.28l-49.48,31.29-11.69,7.66,45.6,34.96,20.18,15.51,15.44,11.86c1.2-3.1.18-5.65.18-8.52l-.08-36.79,24.39-33.19,4.58-6.15ZM331.93,883.51c-8.88-6.82-19.34-11.24-30.55-11.6-5.59-.18-10.48,2.36-13.87,6.4-7.29,8.67-10.95,19.3-11.93,30.59-.28,3.26-.45,6.24-.07,9.47,1.35,11.61-.09,10.55,8.41,17.26,15.89,12.56,32.17,23.84,50.04,33.43,14.43,7.74,28.52,14.56,43.93,20.57.46-39.94-13.85-81.49-45.95-106.14ZM337.41,940.41c-.97,5.18-7.33,6.06-11.49,4.83-5.02-1.49-9.44-3.78-13.66-6.64-6.54-4.43-10.61-11.27-11.07-19.21-.44-7.6,4.79-15.2,12.9-14.86,14.66.62,26.48,19.01,23.33,35.88ZM797.98,915.26c.43-12.6-2.66-24.9-10.28-35.09-4.02-5.37-9.01-8.75-15.93-8.25-12.79.92-24.03,6.25-33.65,14.4l-11.29,11.35c-18.28,21.15-27.18,46.16-30.08,73.88-.64,6.09-1.46,11.65-.79,18.16,20.09-8.17,38.95-17.33,57.37-28.42,15.13-9.11,28.83-19.47,42.56-30.57,1.81-5.13,1.91-10.02,2.09-15.45ZM766.8,933.69c-7.15,8.14-22.27,15.06-28.09,10.47-1.28-1.01-2.45-3.16-2.73-5.31-2.08-15.87,9.3-33.65,23.57-34.34,7.02-.34,12.45,5.89,12.83,12.42.37,6.39-1.4,11.99-5.59,16.76ZM323.18,830.52c11.26-5.88,22.25-10.91,34.13-15.22l13.58-4.93,12.1,3.54c20.54,6.01,54.58,4.01,75.08-5.79-2.93-.83-5.59-1.03-8.23-1.17l-10.45-.56-7.27-.49c-18.99-1.28-37.18-4.97-55.18-11.47l-20.48-9.68c-.68-.57-2.82-1.87-3.12-2.81l-4.21-13.25-7.21.21-10.43.67-6.29.5-.29,5.37-5.08-4.11c-1.16-.94-4.29-.46-6.01-.17l-38.99,6.74c-.52.09-1.74.94-1.53,1.36.16.32.69,1.03.99,1.26l11.22,8.52,18.84,13.62,20.39,13.94c-31.18,16.92-59.96,38.12-78.93,67.3,1.99-.61,3.08-1.55,4.5-2.84,22.04-20.04,46.44-36.72,72.88-50.54ZM742.11,769.55l-9.24-.64-8.26-.27-4.78,14.61c-23.26,14.09-50.56,20.62-77.36,22.58l-7.65.56-9.86.57c-3.06.18-6.01.35-9.41,1.1,25.34,10.9,56.92,12.19,82.26,3.79,3.19-1.06,6.2-1.48,9.37-.19l23.55,9.53,28.47,13.93c18.45,10.34,35.74,21.88,52.21,35.49l16.42,13.57c-4.54-9.06-11.38-15.58-17.75-22.87-6.37-7-13.39-12.7-20.8-18.69-12.59-9.72-25.58-17.76-40.31-26.33,18.11-11.97,35.34-23.4,52.37-37.6-15.49-4.2-30.8-6.24-46.32-7.99l-6.2,4.8.19-5.47-6.9-.48ZM624.41,450.74l9.25-8.83,36.73-31.63,5.48-5.2c3.24-16.61,5.75-32.99,7.07-49.68l-10.41-13.22-18.81-23.2-9.49,26.87c-.71,2.02-1.15,4.39.04,6.04,7.43,14.66,10.77,31.08,13.12,47.19-3.36,5.07-6.86,9.35-11.66,12.6l-19.79,13.4c-.82.56-2.63-.45-3.07-1.23l-6.3-11.13c-1.22-2.16-3.06-2.69-5.59-2.85-3.76-.24-7.86,2.23-7.83,6.94.05,7.72,2.86,15.56,5,23.19l-6.88,10.14c-.25.36-1.23,1.53-1.53,1.21l-1.31-1.36-3.77-3.92c-2.02-2.1-5.7-4.3-8.73-3.13-3.17,1.23-3.26,5.5-2.1,8.28,2.36,5.62,7.38,9.05,13.47,10.32-2.38,12.57,1.91,29.15,10.24,38.85-.4-15.3,1.98-29.81,9.66-42.48,1.68-2.78,4.91-4.99,7.21-7.18ZM393.61,380.47l4.41,25.11,38.75,33.74,7.55,6.96,10.15,9.04c6.07,5.41,10.45,23.36,11.5,33.03.42,3.86-.5,7.67.68,11.83,7.27-10.13,10.88-21.73,10.23-33.68l-.28-5.09c7.86-1.14,13.53-6.39,13.8-14.2.04-1.24-.93-3.22-1.74-3.87-2.07-1.67-6.86.03-8.2,1.36l-6.97,6.88-7.93-11.46c2.4-7.68,4.61-15.47,4.91-23.47.16-4.4-3.32-6.73-7.33-6.75-2.46-.01-4.34.54-5.64,2.7l-8.11,13.55c-8.34-4.87-15.38-9.49-22.43-15.32-4.08-3.38-8.11-7.47-10.17-12.35,1.54-15.31,5.06-31.9,11.97-45.38.96-1.29,1.4-2.8,1.54-4.51l-10.32-29.62-24.44,30.47-4.8,6.77,1.31,12.54,1.55,11.74ZM319.17,659.81l.46-10.47.31-25.94-22.01-10.43-15.27-7.34-17.23-8.3-21.37-10.4-2.96,20.96-.31,10.6c-.58,19.96,8.38,33.96,28.83,37.86,2.63-9.72,3.63-18.82,5.02-29.02l26.75,7.69c2.6.75,4.49,2.33,6.06,4.76l8.94,15.64,2.78,4.4ZM803.86,655.95c2.48.05,4.34-.4,6.63-1.18,15.12-5.19,22.21-17.02,22.42-32.91l.1-7.86c-.6-9.11-1.41-17.75-3.46-26.82l-20.16,9.66-55.63,26.65.28,14.89.71,21.52,11.19-19.55c1.27-2.21,2.95-4.3,5.43-5.02l27.66-8.05,1.14,7.82,3.7,20.84ZM280.23,446.96c-1.5,1.36-2.31,2.54-3,4.08-5.23,11.55-7.74,23.62-8.83,36.32-.6,6.98.69,14.36,1.81,20.86.15.85,1.91,1.98,2.6,1.81l19.81-4.84c2.31-.57,5.62-1.83,7.94-.99,4.05,1.46,7.79,3.22,11.38,5.46l15.39,9.59c2.5,1.56,5.98,3.21,7.89,5.15l5.69,13.2,22.41-8.04,11.84-4.63-22.81-9.33c-15.92-6.51-35.51-17.45-46.78-30.34l-5.12-5.86c-4.9-5.61-6.14-2.87-12.09-4.26l2.07-7.81c-2.67-7.16-5.97-13.93-10.19-20.36ZM736.8,528.65c1.6-3.65,3.21-5.62,6.31-7.48l13.04-7.81c5.32-3.19,10.2-6.44,16.04-8.9,2.73-1.15,5.98.01,8.81.72l18.72,4.67c.71.18,2.67.06,3.06-.54.38-.6.85-2,.96-2.87l1.33-10.46c1.3-10.18-1.81-25.05-4.89-35.42-1.43-4.82-3.13-9.14-6.37-13.53l-10.16,19.24c-1.15,2.18,2.18,6.97,1.22,8.83-.67,1.3-6.9-.37-8.59,1.4l-5.47,5.73c-7.99,9.47-17.27,16.9-28.08,23.01-9.21,5.21-18.48,9.51-28.3,13.38l-15.29,6.03c.76.66,2,1.51,3.12,1.91l30.6,11.08,3.93-8.98ZM666.52,206.73c-13.26-11.48-31.13-14.23-42.86-.28,1.14,1.99,2.72,3.08,4.28,4.64l10.09,10.12c6.57,6.59,10.76,14.33,14.21,23.04,1.88,4.75,22.7,10.43,31.6,11.3,5.42-1.26,8.54-4.67,10.71-9.38-1.26-5.19-3.62-9.8-6.75-14.35-6.31-9.18-12.85-17.78-21.28-25.09ZM395.65,254.76c9.16-2.05,17.95-4.33,25.68-9.49l3.99-9.41c5.64-10.61,13.87-19.08,22.9-26.87.77-.67,1.81-1.99,1.68-2.75-.4-2.26-9.36-8.23-15.8-8.95-10.62-1.2-20.1,3.25-27.87,10.3-8.26,7.5-14.83,16.05-20.99,25.39l-5.11,9.87c-1.75,3.37.06,5.64,2.08,7.86,3.75,4.13,7.8,5.31,13.45,4.05ZM749.68,373.45l5.1-5.27,16.79,5.57c-10.74-20.68-25.82-34.75-44.37-47.49-.59,1.53-.36,2.36-.28,3.79l.56,10.38.69,11.67c.1,1.65-.33,3.49-1.56,4.73l-24.85,25c-3.25,3.27-4.54,8.1-6.45,12.11-.81,1.69-1.46,3.14-1.56,5.28,15.56-5.4,30.09-9.84,45.51-13.21l10.43-12.55ZM321.38,370.25l4.94,6.1,9.16,10.07c15.41,3.07,29.57,7.49,44.64,12.75-1.26-5.29-5.26-14.24-8.01-17.05l-20.03-20.45-5.99-6.46.22-16,1.01-13.2c-17.95,11.79-35.91,28.35-44.77,47.64l14.34-4.92c1.89-.65,3.24-.02,4.49,1.51ZM853.13,484.86c3.97-7.93.06-26.46-4.14-32.57l-8.27-12.02-16.44-19.49-5.34-5.3-8.31,13.64c9.16,22.06,14.72,44.62,17.04,68.2.07.67,1.11,2.29,1.8,2.52l6.84,2.25c6.84-4.24,13.05-9.68,16.83-17.22ZM237.36,502.14l8.56-2.99c2.17-24.46,7.81-47.85,17.33-70.27-2.76-5-5.17-9.13-9.1-13.41l-13.23,15.47c-5.86,6.86-11.63,13.58-16.16,21.49-3.51,6.12-5.09,13.3-5.82,20.19-1.42,13.38,7.63,22.6,18.42,29.53ZM784.13,328.08c-8.16-4.49-17.5-5.07-25.25.93l3.91,5.35,20.66,32.63,12.18,21.23c7.64,1.91,13.72-2.75,14.97-10.3,3.53-21.31-7.73-39.53-26.47-49.84ZM285.17,375.91c7.01-12.15,13.48-24.3,21.64-35.73l7.8-10.93c-4.22-3.3-9.52-5.69-15.23-4.4-24.15,5.45-42.02,31.18-35.74,54.99,1.7,6.43,8.2,10.04,14.44,8.37l7.08-12.28ZM623.16,277.17l.32,4.36c15.87,6.11,30.91,15.11,43.9,25.82l7.13,5.95,11.52-11.56c-2.39-10.21-7.57-18.41-14.74-25.63-12.08-12.16-31.64-20.51-44.97-8.61-2.68,2.4-3.42,6.26-3.17,9.66ZM450.21,281.68l.13-8.44c.09-5.73-10.54-12.58-19.98-11.41-9.63,1.2-17.9,5.16-25.01,11.58-8.47,7.65-15.35,17.24-17.38,28.73l11.5,11.09c15.51-14.04,31.91-24.37,50.73-31.56ZM723.43,257.96c-3.17,16.33,9.77,31.68,24.54,38.44,9.24,4.23,22.82,3.4,27.47-6.11-1.43-5.14-3.6-9.17-6.7-12.97-4.83-5.92-10.01-11.39-16.46-15.4-8.94-5.56-20.95-10.99-28.85-3.95ZM319.35,263.44c-8.51,5.95-15.34,14.05-19.98,23.31-1.51,3.02-.07,6.28,2.41,8.02,17.13,12.06,42.56-4.77,48.9-26.72.92-3.18,1.12-7.84-.86-10.29-2.93-3.62-8.34-3.36-12.54-2.57-6.69,1.26-12.37,4.35-17.94,8.24ZM448.61,322.43c-.37,4.2.8,8.54,3.65,11.52,2.87,3.01,7.54,2.92,11,1.23,3.54-1.73,5.05-5.51,5.33-9.67.31-4.63,3.1-8.79,7.58-10.3,5.91-1.98,11.99,2.38,15.05,8.77,2.5,5.2,8.6,7.22,13.5,4.46,4.82-2.71,6.04-8.36,3.58-13.39-5.22-10.65-15.25-17.66-27.13-18.8-16.38-1.58-31.12,9.71-32.56,26.18ZM593.56,296.21c-12.4.82-23.38,8.31-28.44,19.73-1.41,3.18-1.07,6.34.56,9.14,1.4,2.41,3.96,3.92,7.11,4.38,4.23.62,7.48-1.46,9.36-5.26,2.02-4.08,5.31-7.85,9.79-9.04,5.44-1.43,10.4,1.56,12.28,6.62,1.71,4.59.74,11.66,7.47,13.82,3.59,1.15,7.94,1.13,10.4-2.06,3.3-4.28,3.43-9.93,2.25-15-3.33-14.38-16.01-23.32-30.79-22.34ZM492.83,181.89c-8.74-1.09-20.89-.56-24.96,6.59-2.93,5.15-.9,11.06,2.56,15.31,2.82,3.48,5.01,7.28,8.3,10.24,4.78,4.3,10.85,7.69,17.46,7.28,11.54-.7,18.13-12.71,14.7-24.26-2.48-8.35-9.21-14.06-18.05-15.16ZM587.28,181.4c-11.85.05-20.82,4.29-24.42,15.76-2.94,9.38,1.08,19.47,10.45,23.35,6.81,2.82,17.36-1.59,21.58-6.52l7.34-8.56c3.9-4.55,6.11-10.13,4.23-15.82-2.13-6.44-11.71-8.24-19.18-8.21ZM696.46,178.12c-4.68.4-7.55,3.89-7.16,8.71.52,6.52,3.52,12.18,7.6,17.38,8.03,10.21,18.36,18.18,30.17,23.71,1.58.74,4.07.91,5.42.1l2.68-10.02c1.81-6.75-8.42-20.59-13.42-27.66-5.84-8.27-15.12-13.08-25.29-12.21ZM319.06,541.44c-7.07-2.38-11.06,4.16-15.51,5.35-3.66.98-7.17-1.2-9.16-3.64-5.07-6.21.91-11.63-2.48-17.17-.95-1.55-3.08-2.78-5.28-3.25-6.61-1.43-12.32,2.54-13.89,9.11-3.33,13.95,9.08,29.46,22.21,34.73,5.55,2.23,11.66,2.76,17.14.42,5.84-2.49,10.53-7.6,12.38-13.58,1.51-4.89-.62-10.35-5.41-11.96ZM379.91,199.9c3.42-5.13,5.39-10.98,4.01-17.04-1.6-7.04-16.71-5.88-24.34.11-5.28,4.14-9.09,9.47-12.85,15.03-3.62,5.35-7.55,11.11-8.18,17.8-.39,4.14,1.95,8.43,3.02,12.39,1.91.7,4.03.36,6.07-.68,12.99-6.63,24.3-15.65,32.27-27.6ZM775.14,567.7c12.55-3.47,22.3-13.25,25.65-25.86,2.23-8.4-1.04-17.5-8.26-19.02-3.89-.82-7.49-.36-10.16,2.29-4.77,4.72,2.44,11.46-3.05,18.39-3.65,4.61-9.77,4.55-13.97.61-3.1-2.91-7.63-4.07-11.51-2.27-5.59,2.59-6.59,10.56-1.79,17.28,5.25,7.34,14.07,11.07,23.1,8.58ZM235.33,331.96c11.92-3.79,21.7-11.35,29.17-21.6,6.03-8.28,9.09-17.05,9.93-27,.44-5.18.15-14.69-2.6-16.55-17.58,19.93-32.01,41.85-43.36,65.95,2.59.31,4.67-.11,6.86-.81ZM799.77,272.12l.02,14.94c1.72,12.97,8.64,24.53,18.31,33.09,7.79,6.9,16.76,11.98,27.06,13.15-3.31-8.51-6.91-14.82-11.02-21.64-8.1-13.59-16.81-26.41-26.8-38.63l-6.17-6.7-1.41,5.8ZM550.88,256.29c2.95,11.04,13.03,17.94,24.22,19.29,8.22.99,16.45-.99,19.5-8.4,1.83-4.46.68-9.02-2.06-12.85-3.9-5.45-10.07-6.71-15.92-3.95-3.41,1.61-6.97.92-8.69-2.52l-2.95-5.89c-.75-1.5-3.27-2.95-4.76-3-6.45-.2-11.77,8.22-9.33,17.33ZM518.72,240.92c-3.12-2.63-7.67-2.76-9.69.98l-3.42,6.33c-3.91,7.24-11.62-2.13-19.33,1.78-4.98,2.53-8.93,8.5-7.76,14.54,1.35,7.02,8,10.99,14.59,11.24,12.28.46,25.6-6.3,29.55-18.44,1.95-5.98.69-12.51-3.94-16.41ZM267.63,839.63c6.62-4.12,8.85-11.75,5.58-18.71-4.35-9.27-14.75-21.23-24.51-18.44-8.84,2.53-10.46,18.31-6.02,29.29,4.03,9.95,15.72,13.6,24.94,7.86ZM802.06,835.8c4.6,5.26,9.9,7.44,16.66,6.31,13-2.17,17.44-20.03,12.98-32.53-1.14-3.19-3.58-6.2-6.77-7.11-5.08-1.46-9.9.66-13.41,4.11l-5,4.9c-2.43,2.38-4.08,5.23-5.68,8.27-2.67,5.1-2.65,11.63,1.21,16.05ZM860.08,395.65c2.74-17.15-6.48-37.57-24.05-39.3-3.55-.35-5.95,3.43-5.89,6.58-1.24,11.87,1.71,22.62,9.01,31.95,2.94,3.75,6.5,7.36,11.9,8.07,4.56.6,8.34-2.99,9.03-7.31ZM221.66,365.26c-11.36,12.74-11.84,39.55,1.51,37.58,3.82-.56,7.37-3.25,9.8-5.98,6.85-7.71,10.18-17.38,10.62-27.65l-.24-6.18c-.08-2.02-.62-4.6-2.16-5.65-5.07-3.46-14.61,2.35-19.54,7.89ZM477.73,358.35c-2.29-4.56-6.36-8.43-11.7-8.39-6.61.05-10.58,5.87-10.78,12.42-.45,14.26,10.21,33.92,22.95,29.14,7.05-2.64,11.24-9.32,10.5-17.13-.52-5.44-3.4-9.58-8.45-11.02l-2.52-5.02ZM586.15,369.56c-3.66,8.86.71,19.29,10.04,22.24,11.95,3.77,19.84-12.77,22.09-24.49,1.41-7.33-1.92-15.69-8.65-17.09-7.71-1.61-12.97,4.73-15.61,12.65-3.31,1.53-6.38,3.1-7.87,6.69ZM767.32,228.93c-3.97-1.22-8.1-.15-10.95,2.44-2.6,2.37-3.58,6.44-2.94,10.15,1.65,9.57,10.93,18.57,20.83,16.97,4.96-.8,7.61-5.37,7.7-10.07.18-8.81-6.2-16.9-14.65-19.5ZM310.45,228.6c-10.31-.41-20.16,11.35-18.74,20.96.9,6.09,5.62,10.42,12.33,9.01,8.8-1.85,15.5-9.65,16.38-18.35.64-6.31-3.79-11.38-9.97-11.62ZM587.88,421.91c6.34-9.32-14.15-34.2-24.57-27.57-9.15,5.83-.24,23.74,12.42,30.22,4.06,2.08,9.27,1.57,12.14-2.66ZM492.4,425.6c8.23.93,17.41-9.9,20.83-18.14,1.52-3.67,1.46-7.76-.61-10.82-6.35-9.42-22.6,2.8-27.33,16.95-.99,2.95-.81,5.48.64,8.09,1.04,1.88,3.5,3.59,6.47,3.92ZM289.57,665.97c-6.54.26-12.49,3.94-15.41,9.82,4.05,13,21.26,20.16,34.43,18.31l-7.38-18.78c-1.99-5.06-6.15-8.7-11.63-9.36ZM786,666.13c-4.25-.59-8.34,1.57-10.83,4.91l-3.2,5.46-6.85,17.8c10.32.51,19.1-1.98,26.48-7.26,3.69-3.22,6.76-6.51,8.06-11.23-3.08-5.03-7.75-8.85-13.66-9.67ZM522.87,340.96c-5.74,6-10.4,12.18-13.78,19.32-3.15,6.67-1.86,14.46,3.99,18.97,2.27,1.75,5.19,2.83,8,2.17,6.72-1.56,7.62-10.82,7.68-18.34.06-7.75-1.23-15.32-5.89-22.12ZM555.16,381.56c4.79-.65,7.99-4.4,9.72-7.79,5.25-10.28-5.61-23.57-14.17-32.92-8.68,12.92-8.1,42.41,4.45,40.71ZM732.45,615.86c8.56,2.94,18.07-3.11,19.41-12.45.64-4.41-2.89-8.29-6.68-9l-12.26-2.29c-4.2-.79-7.56,2.08-8.69,6-2.05,7.11.82,15.21,8.22,17.74ZM331.07,615.4c5.17,2.31,10.63,1.21,14.33-1.94,3.97-3.38,5.35-8.33,4.5-13.59-.85-5.29-4.94-8.84-10.39-7.72l-11.07,2.27c-3.33.68-6.27,3.66-6.49,7.42-.32,5.62,3.78,11.18,9.12,13.56ZM631.74,621.74l-.44,7.03-2.58,28.55c1.65-.63,2.39-1.32,3.45-2.22l13.42-11.49,5.38-5.18-18.66-32.21-.56,15.53ZM444.92,657.91l-2.04-22.78-.47-7.54-.49-6.42-.5-15.02-18.69,32.34,6.53,6.15,15.66,13.26ZM370.31,329.22c-6.83,0-12.36,5.54-12.36,12.37s5.54,12.36,12.36,12.36,12.37-5.54,12.37-12.36-5.54-12.37-12.37-12.37ZM691.25,341.64c0,6.82,5.53,12.36,12.36,12.36s12.36-5.53,12.36-12.36-5.53-12.36-12.36-12.36-12.36,5.53-12.36,12.36ZM247.42,549.95l1.7,9.67c.72,4.11,3.04,7.16,6.55,9.23,5.66,3.34,11.21,6.77,17.8,8.83l-20.58-34.5c-1.43-3.03-2.73-5.39-5.3-8.44l-.17,15.21ZM823.03,563.92c3.56-8.44,3.39-16.94,3.29-25.66l-.02-2.01c0-.25-.76-.34-1.39-.42l-9.67,16.93-15.08,24.88c6.74-2.19,20.95-9.15,22.87-13.73ZM507.25,455.52c1.65,1.44,4.31,2.07,6.66,1.23,10.97-3.93,15.43-16.68,11.06-21.28-1.12-1.17-3.66-1.51-5.63-1.04-11.38,2.67-17.44,16.43-12.09,21.1ZM558.8,456.29c2.85,1.41,5.61.92,7.93-.96,4.76-3.84-.06-17.31-12.38-21.13-1.85-.57-4.19-.1-5.44,1.03-4.15,3.74-1.36,15.5,9.89,21.06ZM687.74,559.99l15.41,22.47,6.01,7.99c.33.44,1.41,1.14,1.95,1.19.54.06,1.87-.63,2.2-1.08,3.93-5.44,1.83-11.87-3.15-16.85-3.14-3.14-6.41-6.11-10.32-8.23-3.91-2.13-7.3-4.55-12.11-5.49ZM362.55,592.02c1.95-1.76,3.51-3.31,4.82-5.17l18.77-26.67c-8.93,2.08-15.18,7.33-21.57,12.28-2.02,2.35-4.25,4.66-5.34,7.38-1.77,4.42-1.1,9.25,3.32,12.17ZM733.04,571.89c3.88.89,6.64-1.43,7.53-4.51,1.06-3.7.39-7.56-2.13-10.5-2.08-2.42-5.37-4.1-9.04-4.33-3.81-.24-7.96,2.38-7.5,6.6.64,5.91,5.21,11.37,11.16,12.74ZM351.24,555.71c-1.79-2.75-5.42-3.84-8.17-3.13-6.09,1.57-10.47,6-10.43,12.38.01,2.48,1.51,4.82,3.18,5.92,2.1,1.38,4.92,1.56,7.19.35,6.41-3.43,11.04-11.2,8.23-15.52ZM391.76,734.45c3.23.21,5.72-1.15,7.19-3.72,1.31-2.3,1.03-5.25-.62-7.6-2.06-2.95-5.28-4.31-8.69-5.27-3.5-.99-7.1.15-8.11,3.97-.84,3.2.1,6.55,2.27,9.11,1.74,2.05,4.82,3.32,7.96,3.52ZM674.65,724.77c-.84,2.37-.62,5.48.97,7.2,4.02,4.35,12.49,2.59,15.07-1.92,1.81-3.16,2.32-6.66.6-9.77-3.11-5.64-14.52-1.52-16.64,4.49ZM382.34,679.97c-2.73-3.35-7.68-2.9-10.94-.12-1.89,1.61-3.3,4.5-3.67,7.19-.58,4.17,3.56,7.84,8.08,7.28,3.53-.43,6.07-3.18,7.04-5.38,1.32-2.99,1.46-6.57-.5-8.98ZM694.73,693.25c2.3,1.49,5.15,1.43,7.44.37,1.47-.68,3.55-2.67,3.74-4.84.4-4.52-2.27-8.81-6.28-10.49-3.12-1.3-7.19-.77-8.82,2.38-2.21,4.28-.24,9.88,3.91,12.57ZM586.64,336.14c-3.51-2.07-7.97-.76-10.08,2.94-1.95,3.4-.91,7.83,2.36,9.91,3.1,1.98,7.59,1.44,9.86-2.05,2.57-3.96,1.4-8.71-2.14-10.8ZM546,285.69c-4.41,6.41-1.4,17.05,2.6,17.2,4.38.17,9.03-8.22,5.49-15.74-.68-1.45-2.39-2.85-3.74-3.07-1.38-.23-3.62.55-4.35,1.6ZM490.83,349.97c4.07,0,7.38-3.3,7.38-7.38s-3.3-7.38-7.38-7.38-7.38,3.3-7.38,7.38,3.3,7.38,7.38,7.38ZM353.85,289.74c-.88,3.15-.3,6.79,1.59,9.69,6.79-.97,11.48-5.56,12.51-11.82.38-2.33-1.52-4.11-3.78-4.36-4.5-.5-9.06,1.94-10.33,6.49ZM719.02,299.46c.88-2.68,1.74-4.99,1.67-7.14-.18-5.51-5.59-9.71-10.66-9.12-3.01.35-4.63,2.88-3.82,5.67,1.63,5.66,6.63,9.98,12.81,10.59ZM527.33,285.39c-.72-.76-2.92-1.5-4.04-1.33-3.6.55-7.41,8.4-2.48,16.17,1.25,1.97,3.94,3.61,6.19,1.88,2.53-1.95,4.82-11.95.33-16.72ZM412.66,727.53c-3.3-.15-4.78,3.39-4.76,6.14.03,2.92.93,4.78,3.41,6.18,2.7,1.52,5.98,2.15,8.93.92,2.85-1.19,3.72-4.25,2.13-6.95-1.93-3.29-5.68-6.11-9.71-6.29ZM663.62,739.02c1.61-1.37,2.07-3.3,2.13-5.32.08-2.81-1.57-6.34-4.8-6.18-6.2.3-11.86,6.96-10.12,10.64,1.63,3.44,8.28,4.69,12.79.85Z"/>
</svg>