<?xml version="1.0" encoding="UTF-8"?>
<svg id="Layer_1" xmlns="http://www.w3.org/2000/svg" version="1.1" viewBox="0 0 1080 1080">
  <!-- Generator: Adobe Illustrator 30.5.1, SVG Export Plug-In . SVG Version: 2.1.4 Build 3)  -->
  <defs>
    <style>
      .st0 {
        fill: #ffd000;
      }
    </style>
  </defs>
  <rect class="st0" width="1080" height="1080"/>
  <path d="M157.71,93.02l-21.59,15.54-22.71,16.09-.05,82.58,43.67,55.25-12.64,35.08,31.66,49.13c.45.36,1.06.87,1.4.81s1.02-.51,1.31-.79l5.07-4.8,3.27-3.15,16.76-16.29,14.18-13.63c2.68-2.58,4.99-5.32,8.62-6.93l-19.25,36.9c-8.84,18.46-16.99,36.66-24.29,55.73-.67,1.74-.84,3.67-.47,5.38,10.22,5.05,17,14.31,20.12,25.23,5.67,19.84.57,40.63-12.83,56.32-5.08,5.95-11.51,9.75-19.24,12.21l1.28,11.52.91,8.21,1.41,8.19,12.45-9.74c6.74-5.27,11.93-9.97,20.74-3.84,5.72,3.98,9.69,9.88,12.59,16.35,7.86,17.54,7.9,40.86-.14,58.39-3.33,7.26-11.7,16.5-19.67,18.55l-4.7-18.33c-2.01-7.85,4.72-8.64,8-15.93,6.36-14.15-.86-34.41-12.33-33.22-5.35.55-8.97,4.43-11.49,8.83-1.17,2.04-2.46,4.11-2.09,6.74,3.2,22.71,6.78,44.87,11.6,67.21,1.64,7.59,4.66,14.24,7.95,21.06l3.2,6.64c1.13,2.34,1.99,4.28,3.83,6.44l4.72-11.69,7.08-14.43,5.38,13.85c7.04,18.11,16.46,34.87,27.13,51.07l8.14,12.37,19.96-.35h15.03s16.49.51,16.49.51l6.5.48,11.74.36c.91-10.33,2-19.44,4.06-29.14l19.26-31.37,14.66-23.13,39.37-61.41,14.32-21.86-12.42-30.75c-1.58-.74-3.35-.98-5.19-1.17l-22.6-2.36c-17.8-1.86-37.59-9.43-49.41-23.13-9.26-10.74-15.24-23.42-19.19-37.06l-33.11-17.64,71.34-13.17,28.71,13.74,29.46,14.66c1.79.89,3.05,1.86,4.94,2.29l-2.15-12.66c5.81,6.65,9.96,13.62,13.24,21.71l29.22,72.13,3.07,9.18-10.45,20.61-13.71,27.35c-2.95,5.88-6.66,10.31-11.39,14.89l-16.15,15.62c-2.26,2.18-4.96,4-6.73,6.73l-35.01,54.16c-2.81,4.35-5.38,7.77-6.32,13.02l-2.56,14.26c-.3,1.68.78,2.98,2.15,3.69l18.59,9.7c4.46,2.33,5.17,11,1.66,14.41-1.49,1.44-4.22,2.61-6.69,2.44-6.34-.44-10.95-6.32-17.84-7.81-15.54-3.38-30.99-5.66-46.82-7.05l-8.98-.79-8.14-.52-41.11.02-7.67.48-35.89,3.48-12.15.9c4.93-3.08,10.01-4.45,15.46-6.58l-18.48-26.17-.82-.76c-.15-.14-.49.82-.55,1.01l-2.16,26.28-1.21,11.58-.96,14.41c17.08,12.4,28.4,26.89,35.46,47.53,12.3-6.69,24.44-12.54,37.18-17.67.88-.35,1.86-.67,2.17-1.15.37-.58-.49-2.13-1.08-2.66l-6.72-6.01-13.12-12.91-13.33-14.58-8.38-10.2,20.42-.52,12.55-.02,25.47,1.64,9.02,10.39,8.81,9.79,11.08,11.29,23.75-4.44.76-22.09,21.4,3.4c5.29.84.84,5.1,2.89,11.08l16.35,9.73,22.56,8.85c12.1,4.75,24.43,7.55,37.18,10.32l33.39,7.25c-9.92,3.97-20.2,4.18-30.57,4.85l-4.95-.02c-23.47-.08-54.64-8.71-74.69-21.75l-10.2.32c-40.17,3.13-82.54,14.57-120.06,31.12,5.44,20.87,4.32,42.39-4.27,61.91l-2.15.66-15.62-10.8c3.04-6.56,6.58-12.46,6.6-19.35l.03-14.5c0-3.2-1.2-6.21-2.26-9.64l-12.39,5.31c2.47-4.54,8.48-6.11,10.66-9.78-4.86-9.28-11.45-17.51-20.73-22.67l-1.25.8-3.17,24.36c-.54,4.16-.12,6.78,2.01,10.35,6.08,10.19,9.58,21.35,10.99,33.14.76,6.38-8.94,7.56-17.24,5.86l5,9.85c2.36,4.65,5.7,8.42,9.42,12.07,7.37,7.22,13.69,10.57,24.09,8.15l20.34,27.42,14.15,18.36,11.82,14.34,25.63,29.96,7.58,8.36c.33.36.67,1.4.78,1.73s-1.42.11-1.6,0l-25.59-11.52-45.23-23.8-44.96-29.3-46.1-35.3,11.07-51.47,8.46-48.54c6.8-39.02,10.62-77.87,12.43-117.26l.67-14.62.46-16.44c.04-1.57.46-3.69.18-5.21l-6.76-37.37c-6.4-35.42-11.08-70.63-13.31-106.52l-.41-6.55-.49-15.31.22-6.7c2.41-22.85,10.67-51,17.73-73.33.68-2.15.17-3.64-1-5.47l-39.32-61.45c-.98-1.53-2.25-3.59-2.26-5.34l-.08-47.41-24.08-31.65-6.64-9.1.05-104.9c0-2.68.85-3.92,2.83-5.38l21.03-15.48,29.33-21.13,19.62-14c2.09-1.49,3.45-1.98,5.99-.75,35.74,17.34,70.9,35.33,105.48,55,15.68,8.92,30.57,18.21,45.28,28.42l6.01,3.35,11.11-6.3c34.76-18.13,71.61-31.36,109.95-40.16,23.81-5.47,47.38-9.43,71.63-11.15l15.74-.66h26.14s15.18.58,15.18.58l9.62.85c61.19,6.78,124.94,25.08,178.9,55.17,2.24,1.25,3.35,1.62,5.62.07,22.13-15.11,44.89-28.77,68.54-41.61l86.28-44.07c1.47-.75,2.12-.62,3.4.3l73.46,53.06.43,20.4.3,88.75-30.69,40.45-.17,48.33c-1.05,3.45-3.56,6.63-5.54,9.74l-37.56,58.97c6.41,20.34,12.15,40.65,16.31,61.48l2.26,13.06c.73,10.18,0,20.09-.82,30.35l-2.54,31.34-1.26,10.96c-3.9,33.98-9.57,67.31-16.1,100.87l.34,19.03.64,14.48.47,8.97.48,8.12,2.39,28.54c4.94,58.98,15.59,117.01,28.83,174.49l-7.9,6.68-55.79,40.94c-20.72,13.77-41.76,26.02-64.06,36.89l-34.68,15.85c-.32,0-1.34-.06-1.23-.3l.49-1.07,11.12-12.63,11.76-13.86c19.37-22.82,37.93-45.94,55.37-70.3,1.55-2.17,2.37-2.19,4.99-1.78,3.3.52,7.59.27,10.68-1.25,6.84-3.37,12.65-8.3,16.49-14.78l4.97-8.37,2.65-5.09-.55-1.05c-7.88,1.85-16.68.16-15.96-6.48,1.4-12.9,5.7-24.8,12.37-35.97.83-1.39.79-4.59.57-6.33l-2.42-19.15-1.06-7.04-1.43.4-.73.44-.74.44-.7.42-.74.43-.65.53-.64.52-.64.51-.65.51-.66.51-.65.51-.66.52-.6.57c-4.27,4.06-7.74,8.56-10.59,13.71l-.43.78-.33.82-.34.82-.11.71c-.01.09.26.95.33,1.01l5.27,4.19.7.54.72.51.68.48.68.47.61.6.69.68c.22.22.64,1.12.33,1.04l-1.89-.48-8.49-4.05c-.44-.21-1.66.14-2.12.48-3.89,12.78-3.26,26.38,2.56,38.4,1.24,1.46,1.93,3.59,1.12,4.93l-14.4,9.74-1.62.13c-.35.03-.73-.83-.91-1.29-3.4-8.59-6.22-17.23-6.85-26.6v-19.61s2.25-13.9,2.25-13.9c.12-.74-1.32-2.06-2.1-2.39-34.65-14.44-70.76-24.77-108.14-28.98-6.61-.74-12.79-1.64-19.24-.94l-13.21,6.87c-17.3,7.77-35.17,12.73-54.15,14.16l-20.11.14-21.44-3.51-.78-.79s.6-.54.8-.72l30.13-6.43c19.08-4.17,37.46-9.5,55.49-16.91,8.27-3.4,15.64-7.36,22.67-12.77v-10.1s10.05-1.95,10.05-1.95l13.23-2.04c.53,1.71,1.09,3.7,1.09,5.31v14.65s.09,1.81.09,1.81c.02.48,1.3.7,1.86.82l20.88,4.28c2.49-1.13,4.5-3.47,6.42-5.54l7.29-7.83,7.21-7.79,8.82-10.48,10.55-1.09,13.49-.53,12.9-.1,20.39.43.87,1.16-5.18,6.25-9.88,11.05-17.61,17.74-5.73,5.28-3.5,3.05c-.39.34-1.25,1.51-.8,1.74l2.11,1.11,6.22,2.57c10.28,4.25,20.01,8.87,29.74,14.3.31.17,1.09.45,1.4.51s.76-.69.98-1.07c3.73-11.06,9.37-21.1,17.18-29.76,5.23-6.26,10.77-11.63,17.89-15.86l-.08-4.9-1.19-11.63-3.25-35.27-.91-1.39-19.02,26.46,14.52,5.46c.66.7.8,1.31.24,1.49l-8.11-1.06-10.36-.78-27.22-2.85-7.07-.49-16.16-.43h-12.8s-15.06.4-15.06.4l-8.73.57-24.4,2.66-7.31.94-18.63,3.26c-3.77.66-7.31,2.16-10.71,3.84l-8.89,4.39c-4.87,1.62-9.7-1.2-10.88-5.68-1.49-5.66.97-9.63,5.89-12.1l16.93-8.5c.58-.29,1.46-1.67,1.35-2.28l-3.7-19.79c-.66-3.51-3.84-6.31-5.75-9.27l-13.85-21.52-15.89-25.26c-3.31-5.26-6.99-9.28-11.49-13.61l-19.11-18.41c-4.07-3.93-6.47-8.15-9-13.22l-22.78-45.57c-.63-1.27-.64-2.58-.13-3.88l11.29-28.21,7.37-18.13,12.87-31.71c3.43-7.47,6.93-14.18,11.83-20.83.05-.28,1.52-.03,1.44.39l-1.86,9.41c-.04.21.64,1.34.67,1.33l17.13-8.81,16.33-8.05,27.88-13.4h2.55s69.95,12.79,69.95,12.79l-19.03,10.16-13.07,6.78c-.61.32-1.51,1.78-1.68,2.18-4.23,15.16-11.61,28.86-22.62,39.96-18.13,16.04-39.65,18.62-62.97,20.72l-6.92.62c-2.22.2-4.01,1.26-4.5,3.5l-11.11,27.26.27,2.2,17.72,26.45,36.53,57.33,11.72,18.53,20.93,34.62c2.87,6.79,2.6,14.97,3.46,22.07l.85,7.1,16.99-1.2,14.59-.57,19.91-.04,17.54.65.88-.66c10.7-15.2,19.94-30.97,28.13-47.73l11.33-26.45.63-1.53c.18-.44,1.47.61,1.7,1.08l2.41,5.07,7.38,17.44c.13.3,1.01,1.22,1.19.96l1.11-1.62,7.8-15.94c2.23-4.55,4.13-9.11,5.08-14.13l8.98-47.21,3.49-20.95c.39-2.31-.53-4.1-1.49-6.06-2.56-5.19-6.44-9.86-12.54-10.65-3.93-.51-7.02,2.08-9.42,4.91-4.02,4.74-5.06,10.83-5.13,16.99-.09,7.34,2.67,13.86,8.05,18.72,3.13,2.82,2.85,6.42,1.89,10.23l-3.96,15.7c-.12.46-1.35,1.34-1.74,1.07l-8.24-5.61c-5.99-5.41-10.23-12.02-12.73-19.76-5.85-18.09-4.52-37.66,3.92-54.63l4.72-6.98c4.81-7.12,13.94-11.97,20.04-7.64l9.81,6.96,8.07,6.52c.37.3,1.49.9,1.91.67.52-.28.89-1.61.91-2.21l.04-1.34,1.1-10.38,1.24-10.53c.07-.6-.02-2.26-.35-2.76s-1.42-.74-2.22-1.01l-.92-.31-.83-.28-.84-.28-.9-.46c-22.87-11.62-33.82-44.03-25.04-68.84l.29-.81.32-.84.32-.86.3-.83.41-.77.4-.76.4-.78c3.91-7.56,9.53-14.03,17.49-17.15l.05-1.19-.15-.99-.27-.94-.27-.92-.29-.94-.25-.82-.34-.83-.33-.82-.33-.83-.33-.83-.33-.83-.33-.83-.33-.83-.33-.83-.33-.82-.33-.83-.34-.83-.33-.82-.34-.82-.34-.83-.34-.82-.34-.8-.34-.79-.35-.82-.34-.82-.34-.83-.34-.82-.34-.83-.34-.83-.34-.83-.34-.8-.35-.82-.34-.79-.34-.79-.37-.87-24.13-50.6-.42-.77-.47-.72-.47-.72-.38-.73-.41-.78-.41-.77-.41-.78-.4-.74-.41-.76-.41-.75-3.46-6.38-.44-.72-.46-.75-.7-1.12,1.07-.75,6.24,5.78,8.73,8.1,15.05,14.49,12.76,12.74,2.76,3.09c.43.48,1.72,1.32,2.29,1.51.67.23,1.46-1.4,1.97-2.19l29.53-45.75c.94-1.46,1.47-2.78.86-4.46l-10.68-29.37c-.76-2.08-1-4.08.38-5.82l11.34-14.31,29.8-37.94.78-1.33v-80.77s-.5-1.52-.5-1.52l-33.02-23.66-12.58-8.77-23.86,12.04-38.74,20.33-18.51,10.09c-25.96,14.96-50.67,31.24-75.77,47.58l-15.21,9.9c-.32.21-1.01.62-1.22.41-.28-.28-.93-1.11-1.14-1.52l-1.71-3.44-10.01-22.5c-1.26-2.84-4.11-4.59-6.85-6-11.57-5.94-23.33-11.12-35.65-15.55-2.27,7.71-5.15,14.06-10.07,19.67-8.99,10.26-24.09,15.41-37.74,14.02-11.06-1.13-21.75-5.07-29.7-12.7-6.81-6.53-11.21-14.44-12.02-24.09,2.29-1.57,5.01-2.43,7.85-3.13l1-.24,10.23-2.51c.15-.04,1.14-.07,1.28,0l1.17.66c2.08,10.41,10.05,17.59,20.59,18.88,11.31,1.35,21.95-5.61,25.06-16.72.16-.58-.46-1.83-.97-2.35l-37.16-9.73c-14.89-3.19-29.45-5.25-44.66-7.15-1.42-.18-2.15.79-2.82,2.21l-20.71,43.66-19.2,41-1.07.42c-.21.08-.55-.54-.7-.85l-17.97-38.22-12.88-27.23-8.31-17.73c-1.09-2.32-1.75-3.36-4.66-3.03-20.61,2.36-40.69,5.86-60.75,11.02l-19.96,5.74c-3.39.98,4.75,20.09,22.99,19.11,10.74-.57,19.57-8.12,21.68-19.03l3-.74,17.14,4.4c.67.76,1.58,2.51,1.46,3.14-1.42,9.9-6.12,17.38-13.52,23.92-7.88,6.8-18.21,10.18-28.71,11.31l-7.69-.07c-18.38-1.25-33.59-13.35-38.66-31.15l-.78-1.85c-.18-.42-1.54-.21-2.05-.02-12.3,4.73-23.91,9.97-35.61,15.96-3.01,1.54-4.49,3.9-5.86,7l-10.27,23.25c-.26.6-.75,1.4-1.13,1.67-.47.34-1.92-.23-2.42-.55l-15.68-9.98-53.69-34.4c-11.78-7.54-23.42-14.02-35.7-20.56l-24.93-13.27-15.68-8.17-24.28-12.31-2.05-.36c-.2-.04-1.05.6-1.19.69ZM186.04,445.31v-4.55c.02-5.68-5.46-16.61-11.89-16.26l-3.52,18.56c-1.39,7.34-1.97,14.52-1.56,22.05,1.26.51,3.04.38,4.29-.22,7.59-3.67,11.87-10.99,12.67-19.58ZM904.95,465.43c.41-6.42.1-11.91-.98-17.67l-4.27-22.91c-1.57-.64-3.58-.09-4.81,1.07-9.47,9.04-9.26,21.98-2.08,32.41,2.77,4.02,6.67,7.32,12.13,7.1ZM377.73,466.46c-1.37,1.74-2.62,2.98-4.44,4.28l-10.59-18.66c-.4-.7-.62-2.17-.5-2.78.06-.29,6.29-.39,5.94-4.7-.14-1.75-1.45-3.46-3.39-4.08l-24.72-7.81c-7.43,17.99,0,38.46,15.8,48.1,19.08,11.63,44.91,3.18,54.35-18.28l-20.61-11.1-11.83,15.03ZM663.44,462.55c7.73,15.63,22.28,24.92,39.01,23.32,8.64-.83,16.15-4.21,22.24-10.35,6.77-6.82,11.51-15.62,11.75-25.36.15-6.13.02-11.76-2.78-17.39l-24.87,7.65c-2.1.64-3.34,2.95-3.27,4.7.16,4.03,4.47,3.27,6.5,5.28l-10.99,19.56c-1.45-.23-2.93-1.17-3.76-2.22l-13.01-16.33-20.8,11.13Z"/>
  <path d="M615.69,975.85l-17.38,13.79c-.26.21-1.19.59-1.29.29l-.48-1.52c.08-5.7-.02-10.91-.93-17.01l-52.32,30.97-6.56,3.52-15.77-8.66-19.91-11.4-23.08-14.17c-1.42,6.55-.24,19.72-1.81,18.51l-1.52-1.17-33.46-26.19-22.84-17.76-21.79-17.14-13.57-56.36c-10.62-6.02-19.63-13.08-27.49-22.02l-13.48-18.53,31.29-11.69c13.22,6.17,26.71,10.1,41.26,11.05l20.14.27-13.54,23.53c-.19.43-.62,1.98-.16,2.08l2.11.45c10.73,2.28,30.12-1.88,41.25-6.33,18.43-7.38,35.59-16.48,52.4-26.97l8.4-5.69.13-27.61-7.07-7-7.45-7.04-6.37-5.87c-2.75-2.53-6.01-4.86-8.13-8.04-2.73-4.11-3.2-12.16-7.61-17.96l-25.48-12.25-13.4-6.94c-7.5-10.12-13.17-21.29-16.21-33.57-1.73-6.98-1.96-14.03,1-20.93l17.5,19.45,27.15-16.18c2.09-1.25,5.69-.12,7.97.52l49.61,13.98,31.51-8.87,21.93-5.96c2.08-.56,4.74.38,6.55,1.47l24.83,14.99,16.51-18.45,1.47-.2c5.52,16.35-3.23,34.13-12.11,48.71-1.66,2.72-3.3,5.24-6.19,6.63l-30.51,14.7c-3.51,1.69-7.1,3.52-8.41,7.27l-4.55,12.99c-1.16,3.33-5.32,5.73-7.91,8.14l-7.55,7-6.65,6.17-7.23,7.18.25,14.81.43,13.63c18.96,12.47,38.85,23.4,60.01,31.9,12.73,5.11,30.39,8.67,44.14,5.81l-14.39-25.53,20.73-.28c14.32-1.02,27.72-4.62,40.92-11.13l26.78,9.91c1.38.51,2.54,1.23,4.01,2.27-10.39,17.57-21.98,29.6-39.95,39.51-1.19,2.1-1.65,4.62-2.24,7.06l-11.99,49.89-6.2,5.09-55.28,42.87ZM552.27,765.1l9.55-9.28-.76-7.07c-.39-3.61-.87-7.64-.06-11.09,1.68-7.15,5.23-13.15,10.33-18.15,4.58-4.5,9.54-8.22,15.32-10.71,5.09-2.18,9.17-.63,14.23.13,4.66.71,9.27-4.54,10.89-8.66-6.14-4.33-12.21-7.93-18.76-11.13-1.54-.14-4.8-.43-6.29,0l-44.97,13c-3.49,1.01-6.38,1.01-9.85,0l-41.42-12c-2.5-.72-6.08-1.98-8.41-1.34-4.5,1.23-8.24,3.57-11.93,6.09l-8.25,5.63c1.93,4.46,6.3,8.47,10.93,8.7,6.57-2.44,13.13-2.29,18.93,1.79l7.14,5.04c6.75,5.82,12.37,13.36,13.96,22.38,1.03,5.85-.48,11.38-1.15,17.37l7.5,7.17,6.13,5.53c1.16,1.04,2.39,1.87,3.91,2.48l7.53-44.26,7.92,44.71,7.61-6.34ZM533.44,953.65c2.36.67,4.41.65,6.46.09,20.7-5.74,39.9-14.32,58.48-26.08l.83,8.73.55,9.24,4.53-2.82,8.02-5.96,18.09-13.8,17.35-13.45,5.08-20.44-48.15-21.42c-18.68-7.2-37.46-12.52-57.37-14.52h-20.99c-20.28,2.06-39.26,7.46-58.19,14.85l-43.52,19.13c-1.34.59-2.56,1.47-3.36,2.6l4.89,19.61,7.51,6.38,22.69,17.31,15.05,11.12c.73.54,2.44.89,2.62.19l.56-8.68c.18-2.82.14-5.03.87-8.02,18.26,11.44,37.19,20.05,57.98,25.95Z"/>
  <path d="M199.55,200.46l27.13,17.41,34.2,21.6-72.5,55.79-8.95,6.53.04-44.97-28.93-40.02,4.65-55.55,1.03-12.82,2.5-26.15,46.18,32.04,32.14,22.43,35.37,24.99c-3.57,1.38-6.7.33-9.97.24l-16.02-.42-18.54-.58-13.81-.6c-4.69-.37-8.8-.49-14.53.08Z"/>
  <path d="M878.68,290.06l-20.18-15.51-45.6-34.96,11.69-7.66,49.48-31.29c-6-.99-11.31-.55-16.82-.28l-12.68.62-19.21.54-16.34.52c-2.53.08-5.01.88-7.77-.27l22.79-16.22,90.95-63.42,3.57,39.6,1.22,14.59,1.36,16.02,2.04,24.9-4.58,6.15-24.39,33.19.08,36.79c0,2.87,1.02,5.43-.18,8.52l-15.44-11.86Z"/>
  <path d="M333.95,969.08c-17.88-9.59-34.15-20.88-50.04-33.43-8.5-6.72-7.05-5.66-8.41-17.26-.38-3.23-.21-6.21.07-9.47.98-11.29,4.64-21.93,11.93-30.59,3.4-4.04,8.29-6.58,13.87-6.4,11.21.36,21.67,4.78,30.55,11.6,32.1,24.64,46.41,66.19,45.95,106.14-15.41-6.01-29.5-12.83-43.93-20.57ZM337.41,940.41c3.15-16.86-8.66-35.26-23.33-35.88-8.11-.34-13.34,7.25-12.9,14.86.46,7.94,4.53,14.77,11.07,19.21,4.22,2.86,8.64,5.15,13.66,6.64,4.17,1.23,10.53.35,11.49-4.83Z"/>
  <path d="M753.33,961.29c-18.41,11.1-37.28,20.26-57.37,28.42-.67-6.51.15-12.07.79-18.16,2.9-27.72,11.8-52.73,30.08-73.88l11.29-11.35c9.62-8.15,20.86-13.48,33.65-14.4,6.91-.5,11.91,2.87,15.93,8.25,7.63,10.19,10.71,22.5,10.28,35.09-.19,5.44-.28,10.32-2.09,15.45-13.73,11.1-27.43,21.46-42.56,30.57ZM766.8,933.69c4.19-4.77,5.96-10.37,5.59-16.76-.38-6.53-5.81-12.76-12.83-12.42-14.28.69-25.66,18.46-23.57,34.34.28,2.15,1.44,4.3,2.73,5.31,5.81,4.59,20.93-2.32,28.09-10.47Z"/>
  <path d="M323.18,830.52c-26.44,13.82-50.84,30.5-72.88,50.54-1.42,1.29-2.51,2.23-4.5,2.84,18.97-29.18,47.75-50.37,78.93-67.3l-20.39-13.94-18.84-13.62-11.22-8.52c-.3-.23-.83-.94-.99-1.26-.21-.42,1.01-1.27,1.53-1.36l38.99-6.74c1.72-.3,4.85-.77,6.01.17l5.08,4.11.29-5.37,6.29-.5,10.43-.67,7.21-.21,4.21,13.25c.3.95,2.44,2.24,3.12,2.81l20.48,9.68c17.99,6.5,36.18,10.19,55.18,11.47l7.27.49,10.45.56c2.64.14,5.3.34,8.23,1.17-20.5,9.79-54.55,11.8-75.08,5.79l-12.1-3.54-13.58,4.93c-11.88,4.31-22.88,9.34-34.13,15.22Z"/>
  <path d="M811.42,870.61c-16.47-13.62-33.76-25.16-52.21-35.49l-28.47-13.93-23.55-9.53c-3.17-1.28-6.18-.86-9.37.19-25.34,8.4-56.93,7.11-82.26-3.79,3.4-.75,6.35-.92,9.41-1.1l9.86-.57,7.65-.56c26.8-1.96,54.11-8.48,77.36-22.58l4.78-14.61,8.26.27,9.24.64,6.9.48-.19,5.47,6.2-4.8c15.52,1.75,30.83,3.79,46.32,7.99-17.04,14.2-34.26,25.63-52.37,37.6,14.73,8.57,27.73,16.62,40.31,26.33,7.41,5.99,14.43,11.69,20.8,18.69,6.37,7.29,13.21,13.81,17.75,22.87l-16.42-13.57Z"/>
  <path d="M594.66,446.07l3.77,3.92,1.31,1.36c.3.32,1.29-.85,1.54-1.21l6.88-10.14c-2.15-7.63-4.95-15.47-5-23.19-.03-4.7,4.07-7.18,7.83-6.94,2.53.16,4.37.7,5.59,2.85l6.3,11.13c.44.78,2.25,1.79,3.07,1.23l19.79-13.4c4.8-3.25,8.3-7.53,11.66-12.6-2.34-16.11-5.68-32.53-13.12-47.19-1.19-1.65-.75-4.02-.04-6.04l9.49-26.87,18.81,23.2,10.41,13.22c-1.32,16.69-3.83,33.06-7.07,49.68l-5.48,5.2-36.73,31.63-9.25,8.83c-2.3,2.2-5.52,4.4-7.21,7.18-7.68,12.67-10.06,27.19-9.66,42.48-8.33-9.71-12.63-26.28-10.24-38.85-6.09-1.27-11.11-4.71-13.47-10.32-1.17-2.78-1.08-7.05,2.1-8.28s6.71,1.03,8.73,3.13Z"/>
  <path d="M480.47,444.69c1.35-1.33,6.13-3.03,8.2-1.36.81.65,1.78,2.63,1.74,3.87-.27,7.82-5.95,13.06-13.8,14.2l.28,5.09c.65,11.95-2.96,23.55-10.23,33.68-1.18-4.17-.26-7.98-.68-11.83-1.05-9.67-5.43-27.62-11.5-33.03l-10.15-9.04-7.55-6.96-38.75-33.74-4.41-25.11-1.55-11.74-1.31-12.54,4.8-6.77,24.44-30.47,10.32,29.62c-.14,1.72-.58,3.23-1.54,4.51-6.91,13.48-10.43,30.07-11.97,45.38,2.06,4.88,6.09,8.97,10.17,12.35,7.05,5.84,14.1,10.45,22.43,15.32l8.11-13.55c1.3-2.17,3.17-2.72,5.64-2.7,4.01.02,7.49,2.35,7.33,6.75-.3,8-2.51,15.79-4.91,23.47l7.93,11.46,6.97-6.88Z"/>
  <path d="M307.44,639.77c-1.57-2.43-3.46-4.01-6.06-4.76l-26.75-7.69c-1.39,10.2-2.4,19.29-5.02,29.02-20.46-3.9-29.42-17.9-28.83-37.86l.31-10.6,2.96-20.96,21.37,10.4,17.23,8.3,15.27,7.34,22.01,10.43-.31,25.94-.46,10.47-2.78-4.4-8.94-15.64Z"/>
  <path d="M799.02,627.28l-27.66,8.05c-2.48.72-4.17,2.8-5.43,5.02l-11.19,19.55-.71-21.52-.28-14.89,55.63-26.65,20.16-9.66c2.05,9.07,2.86,17.71,3.46,26.82l-.1,7.86c-.21,15.89-7.29,27.72-22.42,32.91-2.29.78-4.15,1.23-6.63,1.18l-3.7-20.84-1.14-7.82Z"/>
  <path d="M340.91,537.6l-5.69-13.2c-1.91-1.94-5.4-3.59-7.89-5.15l-15.39-9.59c-3.58-2.23-7.33-3.99-11.38-5.46-2.32-.84-5.63.42-7.94.99l-19.81,4.84c-.7.17-2.46-.96-2.6-1.81-1.12-6.51-2.41-13.88-1.81-20.86,1.09-12.7,3.59-24.76,8.83-36.32.69-1.53,1.5-2.71,3-4.08,4.22,6.43,7.52,13.2,10.19,20.36l-2.07,7.81c5.95,1.39,7.19-1.34,12.09,4.26l5.12,5.86c11.27,12.89,30.85,23.83,46.78,30.34l22.81,9.33-11.84,4.63-22.41,8.04Z"/>
  <path d="M736.8,528.65l-3.93,8.98-30.6-11.08c-1.12-.41-2.36-1.25-3.12-1.91l15.29-6.03c9.82-3.87,19.09-8.17,28.3-13.38,10.81-6.11,20.08-13.54,28.08-23.01l5.47-5.73c1.69-1.77,7.92-.1,8.59-1.4.95-1.86-2.37-6.65-1.22-8.83l10.16-19.24c3.24,4.39,4.94,8.72,6.37,13.54,3.08,10.36,6.19,25.23,4.89,35.42l-1.33,10.46c-.11.88-.57,2.27-.96,2.87s-2.35.72-3.06.54l-18.72-4.67c-2.83-.71-6.09-1.86-8.81-.72-5.84,2.46-10.72,5.7-16.04,8.9l-13.04,7.81c-3.1,1.86-4.72,3.83-6.31,7.48Z"/>
  <path d="M683.83,255.54c-8.9-.87-29.72-6.56-31.6-11.3-3.45-8.71-7.64-16.44-14.21-23.04l-10.09-10.12c-1.56-1.56-3.14-2.65-4.28-4.64,11.74-13.95,29.6-11.2,42.86.28,8.43,7.3,14.96,15.91,21.28,25.09,3.12,4.54,5.49,9.16,6.75,14.35-2.16,4.72-5.29,8.12-10.71,9.38Z"/>
  <path d="M395.65,254.76c-5.65,1.26-9.69.09-13.45-4.05-2.02-2.22-3.82-4.49-2.08-7.86l5.11-9.87c6.16-9.34,12.73-17.89,20.99-25.39,7.77-7.05,17.24-11.5,27.87-10.3,6.44.73,15.4,6.69,15.8,8.95.13.76-.91,2.09-1.68,2.75-9.03,7.79-17.26,16.26-22.9,26.87l-3.99,9.41c-7.74,5.16-16.52,7.44-25.68,9.49Z"/>
  <path d="M693.74,399.21c.1-2.14.75-3.59,1.56-5.28,1.91-4.02,3.21-8.85,6.45-12.11l24.85-25c1.23-1.24,1.66-3.08,1.56-4.73l-.69-11.67-.56-10.38c-.08-1.42-.3-2.25.28-3.79,18.55,12.74,33.64,26.81,44.37,47.49l-16.79-5.57-5.1,5.27-10.43,12.55c-15.42,3.37-29.95,7.82-45.51,13.21Z"/>
  <path d="M380.13,399.18c-15.07-5.26-29.23-9.69-44.64-12.75l-9.16-10.07-4.94-6.1c-1.24-1.54-2.6-2.16-4.49-1.51l-14.34,4.92c8.87-19.29,26.82-35.85,44.77-47.64l-1.01,13.2-.22,16,5.99,6.46,20.03,20.45c2.75,2.81,6.75,11.76,8.01,17.05Z"/>
  <path d="M853.13,484.86c-3.77,7.54-9.99,12.98-16.83,17.22l-6.84-2.25c-.69-.23-1.74-1.85-1.8-2.52-2.32-23.58-7.87-46.14-17.04-68.2l8.31-13.64,5.34,5.3,16.44,19.49,8.27,12.02c4.2,6.11,8.11,24.65,4.14,32.57Z"/>
  <path d="M237.36,502.14c-10.79-6.93-19.84-16.15-18.42-29.53.73-6.89,2.31-14.07,5.82-20.19,4.53-7.9,10.3-14.63,16.16-21.49l13.23-15.47c3.93,4.28,6.34,8.41,9.1,13.41-9.51,22.42-15.16,45.81-17.33,70.27l-8.56,2.99Z"/>
  <path d="M795.62,388.23l-12.18-21.23-20.66-32.63-3.91-5.35c7.76-6,17.09-5.43,25.25-.93,18.74,10.31,30,28.53,26.47,49.84-1.25,7.56-7.34,12.21-14.97,10.3Z"/>
  <path d="M285.17,375.91l-7.08,12.28c-6.24,1.67-12.74-1.94-14.44-8.37-6.28-23.81,11.59-49.54,35.74-54.99,5.7-1.29,11,1.1,15.23,4.4l-7.8,10.93c-8.16,11.43-14.64,23.58-21.64,35.73Z"/>
  <path d="M667.38,307.36c-12.99-10.7-28.03-19.71-43.9-25.82l-.32-4.36c-.25-3.4.48-7.27,3.17-9.66,13.33-11.89,32.89-3.55,44.97,8.61,7.16,7.21,12.34,15.41,14.74,25.63l-11.52,11.56-7.13-5.95Z"/>
  <path d="M399.48,313.24l-11.5-11.09c2.03-11.49,8.91-21.08,17.38-28.73,7.11-6.42,15.38-10.38,25.01-11.58,9.44-1.17,20.07,5.68,19.98,11.41l-.13,8.44c-18.81,7.18-35.21,17.51-50.73,31.56Z"/>
  <path d="M775.44,290.3c-4.66,9.51-18.24,10.33-27.47,6.11-14.77-6.76-27.71-22.11-24.54-38.44,7.9-7.04,19.91-1.61,28.85,3.95,6.46,4.01,11.63,9.48,16.46,15.4,3.1,3.8,5.27,7.84,6.7,12.97Z"/>
  <path d="M350.68,268.05c-6.34,21.95-31.77,38.78-48.9,26.72-2.48-1.74-3.93-5-2.41-8.02,4.64-9.27,11.47-17.37,19.98-23.31,5.57-3.89,11.25-6.98,17.94-8.24,4.2-.79,9.61-1.05,12.54,2.57,1.98,2.44,1.78,7.11.86,10.29Z"/>
  <path d="M491.22,323.98c-3.07-6.39-9.14-10.75-15.05-8.77-4.48,1.5-7.26,5.67-7.58,10.3-.28,4.17-1.79,7.95-5.33,9.67s-8.14,1.78-11-1.23-4.01-7.32-3.65-11.52c1.43-16.47,16.18-27.75,32.56-26.18,11.88,1.14,21.92,8.16,27.13,18.81,2.46,5.03,1.25,10.67-3.58,13.39s-11.01.74-13.5-4.46Z"/>
  <path d="M604.24,321.8c-1.88-5.05-6.84-8.05-12.28-6.62-4.49,1.18-7.78,4.96-9.79,9.04-1.88,3.8-5.13,5.88-9.36,5.26-3.15-.46-5.71-1.98-7.11-4.38-1.64-2.8-1.97-5.97-.56-9.14,5.06-11.42,16.04-18.92,28.44-19.73,14.78-.97,27.47,7.96,30.79,22.34,1.17,5.07,1.05,10.72-2.25,15-2.46,3.19-6.81,3.21-10.4,2.06-6.74-2.16-5.76-9.23-7.47-13.82Z"/>
  <path d="M496.19,221.31c-6.61.4-12.68-2.99-17.46-7.28-3.29-2.96-5.48-6.76-8.3-10.24-3.46-4.26-5.49-10.17-2.56-15.31,4.07-7.15,16.22-7.67,24.96-6.59s15.57,6.81,18.05,15.16c3.43,11.55-3.15,23.56-14.7,24.26Z"/>
  <path d="M602.23,205.43l-7.34,8.56c-4.22,4.92-14.77,9.33-21.58,6.52-9.37-3.87-13.4-13.96-10.45-23.35,3.6-11.47,12.57-15.72,24.42-15.76,7.48-.03,17.06,1.77,19.18,8.21,1.88,5.69-.33,11.28-4.23,15.82Z"/>
  <path d="M732.49,228.01c-1.35.8-3.84.64-5.42-.1-11.8-5.52-22.13-13.5-30.17-23.71-4.09-5.19-7.09-10.85-7.6-17.38-.38-4.82,2.48-8.31,7.16-8.71,10.17-.87,19.45,3.94,25.29,12.21,5,7.07,15.23,20.91,13.42,27.66l-2.68,10.02Z"/>
  <path d="M319.06,541.44c4.8,1.61,6.92,7.07,5.41,11.96-1.84,5.99-6.54,11.09-12.38,13.58-5.48,2.34-11.59,1.81-17.14-.42-13.13-5.26-25.54-20.78-22.21-34.73,1.57-6.57,7.28-10.54,13.89-9.11,2.2.48,4.33,1.71,5.28,3.25,3.39,5.54-2.59,10.95,2.48,17.17,1.99,2.44,5.5,4.62,9.16,3.64,4.45-1.2,8.44-7.73,15.51-5.35Z"/>
  <path d="M347.64,227.5c-2.03,1.04-4.16,1.38-6.07.68-1.07-3.96-3.41-8.25-3.02-12.39.64-6.69,4.56-12.45,8.18-17.8s7.57-10.88,12.85-15.03c7.63-5.98,22.74-7.15,24.34-.11,1.37,6.06-.59,11.9-4.01,17.04-7.97,11.96-19.29,20.97-32.27,27.6Z"/>
  <path d="M752.04,559.12c-4.8-6.72-3.8-14.7,1.79-17.28,3.88-1.8,8.41-.64,11.51,2.27,4.2,3.94,10.32,4,13.97-.61,5.49-6.93-1.72-13.67,3.05-18.39,2.68-2.65,6.27-3.11,10.16-2.29,7.23,1.52,10.49,10.62,8.26,19.02-3.34,12.61-13.1,22.39-25.65,25.86-9.03,2.49-17.85-1.24-23.1-8.58Z"/>
  <path d="M264.5,310.36c-7.47,10.25-17.25,17.81-29.17,21.6-2.19.7-4.26,1.12-6.86.81,11.35-24.11,25.78-46.02,43.36-65.95,2.75,1.86,3.04,11.37,2.6,16.55-.85,9.95-3.9,18.72-9.93,27Z"/>
  <path d="M845.17,333.29c-10.3-1.17-19.27-6.25-27.06-13.15-9.67-8.56-16.6-20.12-18.31-33.09l-.02-14.94,1.41-5.8,6.17,6.7c9.99,12.23,18.7,25.05,26.8,38.63,4.11,6.82,7.7,13.13,11.02,21.64Z"/>
  <path d="M592.54,254.32c2.74,3.83,3.89,8.39,2.06,12.85-3.05,7.41-11.28,9.39-19.5,8.4-11.19-1.35-21.27-8.25-24.22-19.29-2.43-9.11,2.89-17.53,9.33-17.33,1.49.05,4.01,1.5,4.76,3l2.95,5.89c1.73,3.44,5.29,4.13,8.69,2.52,5.85-2.76,12.02-1.5,15.92,3.95Z"/>
  <path d="M478.51,264.54c-1.16-6.03,2.78-12.01,7.76-14.54,7.71-3.91,15.42,5.46,19.33-1.78l3.42-6.33c2.02-3.74,6.57-3.61,9.69-.98,4.63,3.9,5.88,10.43,3.94,16.41-3.96,12.15-17.27,18.9-29.55,18.44-6.59-.25-13.24-4.22-14.59-11.24Z"/>
  <path d="M267.63,839.63c-9.22,5.73-20.92,2.08-24.94-7.86-4.45-10.98-2.82-26.76,6.02-29.29,9.76-2.79,20.17,9.18,24.51,18.44,3.27,6.96,1.04,14.59-5.58,18.71Z"/>
  <path d="M802.06,835.8c-3.86-4.42-3.89-10.95-1.21-16.05,1.59-3.04,3.25-5.89,5.68-8.27l5-4.9c3.51-3.45,8.33-5.56,13.41-4.11,3.18.91,5.63,3.92,6.77,7.11,4.46,12.5.02,30.36-12.98,32.53-6.76,1.13-12.06-1.04-16.66-6.31Z"/>
  <path d="M851.05,402.95c-5.4-.71-8.96-4.32-11.9-8.07-7.3-9.33-10.25-20.08-9.01-31.95-.06-3.15,2.33-6.93,5.89-6.58,17.57,1.72,26.79,22.15,24.05,39.3-.69,4.31-4.47,7.91-9.03,7.31Z"/>
  <path d="M223.18,402.83c-13.36,1.97-12.87-24.83-1.51-37.58,4.94-5.54,14.47-11.35,19.54-7.89,1.54,1.05,2.08,3.63,2.16,5.65l.24,6.18c-.44,10.28-3.78,19.94-10.62,27.65-2.43,2.73-5.99,5.42-9.8,5.98Z"/>
  <path d="M488.7,374.39c.74,7.8-3.45,14.48-10.5,17.13-12.75,4.78-23.4-14.88-22.95-29.14.21-6.54,4.17-12.36,10.78-12.42,5.34-.04,9.41,3.83,11.7,8.39l2.52,5.02c5.05,1.44,7.93,5.58,8.45,11.02Z"/>
  <path d="M618.27,367.3c-2.25,11.72-10.14,28.26-22.09,24.49-9.33-2.95-13.7-13.38-10.04-22.24,1.49-3.6,4.56-5.16,7.87-6.69,2.65-7.93,7.9-14.26,15.61-12.65,6.73,1.41,10.05,9.77,8.65,17.09Z"/>
  <path d="M774.27,258.5c-9.9,1.6-19.19-7.4-20.83-16.97-.64-3.72.34-7.78,2.94-10.15,2.84-2.59,6.97-3.66,10.95-2.44,8.45,2.59,14.82,10.69,14.65,19.5-.09,4.71-2.74,9.27-7.7,10.07Z"/>
  <path d="M304.04,258.57c-6.71,1.41-11.43-2.92-12.33-9.01-1.42-9.61,8.43-21.37,18.74-20.96,6.18.24,10.61,5.32,9.97,11.62-.89,8.7-7.58,16.5-16.38,18.35Z"/>
  <path d="M587.88,421.91c-2.87,4.22-8.09,4.73-12.14,2.66-12.66-6.48-21.57-24.4-12.42-30.22,10.41-6.63,30.9,18.25,24.57,27.57Z"/>
  <path d="M513.22,407.47c-3.41,8.24-12.59,19.07-20.83,18.14-2.98-.33-5.44-2.04-6.47-3.92-1.45-2.61-1.62-5.14-.64-8.09,4.73-14.15,20.98-26.37,27.33-16.95,2.07,3.06,2.13,7.15.61,10.82Z"/>
  <path d="M308.59,694.11c-13.17,1.84-30.38-5.31-34.43-18.31,2.93-5.88,8.88-9.56,15.41-9.82,5.48.66,9.64,4.29,11.63,9.36l7.38,18.78Z"/>
  <path d="M765.12,694.29l6.85-17.8,3.2-5.46c2.48-3.34,6.58-5.49,10.83-4.91,5.91.82,10.58,4.64,13.66,9.67-1.31,4.72-4.37,8.01-8.06,11.23-7.37,5.28-16.16,7.78-26.48,7.26Z"/>
  <path d="M528.76,363.08c-.06,7.52-.95,16.78-7.68,18.34-2.82.66-5.73-.42-8-2.17-5.85-4.5-7.14-12.3-3.99-18.97,3.38-7.14,8.03-13.33,13.78-19.32,4.67,6.8,5.96,14.36,5.89,22.12Z"/>
  <path d="M550.71,340.85c8.56,9.35,19.42,22.64,14.17,32.92-1.73,3.39-4.93,7.14-9.72,7.79-12.55,1.7-13.13-27.79-4.45-40.71Z"/>
  <path d="M751.86,603.41c-1.35,9.33-10.85,15.38-19.41,12.45-7.39-2.53-10.27-10.63-8.22-17.74,1.13-3.91,4.49-6.78,8.69-6l12.26,2.29c3.79.71,7.31,4.59,6.68,9Z"/>
  <path d="M331.07,615.4c-5.34-2.39-9.44-7.94-9.12-13.56.21-3.76,3.15-6.74,6.49-7.42l11.07-2.27c5.46-1.12,9.55,2.43,10.39,7.72s-.54,10.21-4.5,13.59c-3.7,3.15-9.16,4.25-14.33,1.94Z"/>
  <path d="M632.16,655.09c-1.05.9-1.8,1.6-3.45,2.22l2.58-28.55.44-7.03.56-15.53,18.66,32.21-5.38,5.18-13.42,11.49Z"/>
  <polygon points="444.92 657.91 429.26 644.65 422.73 638.5 441.42 606.15 441.92 621.17 442.41 627.59 442.88 635.13 444.92 657.91"/>
  <circle cx="370.31" cy="341.59" r="12.37"/>
  <circle cx="703.6" cy="341.64" r="12.36"/>
  <path d="M255.67,568.85c-3.51-2.07-5.82-5.12-6.55-9.23l-1.7-9.67.17-15.21c2.58,3.05,3.87,5.41,5.3,8.44l20.58,34.5c-6.59-2.06-12.15-5.49-17.8-8.83Z"/>
  <path d="M823.03,563.92c-1.93,4.57-16.13,11.54-22.87,13.73l15.08-24.88,9.67-16.93c.62.08,1.38.17,1.39.42l.02,2.01c.09,8.72.26,17.22-3.29,25.66Z"/>
  <path d="M524.97,435.47c4.37,4.6-.1,17.35-11.06,21.28-2.35.84-5.01.21-6.66-1.23-5.35-4.67.7-18.42,12.09-21.1,1.98-.46,4.52-.13,5.63,1.04Z"/>
  <path d="M558.8,456.29c-11.25-5.55-14.04-17.32-9.89-21.06,1.26-1.13,3.6-1.61,5.44-1.03,12.32,3.82,17.13,17.29,12.38,21.13-2.32,1.88-5.07,2.37-7.93.96Z"/>
  <path d="M710.16,573.72c4.98,4.98,7.08,11.4,3.15,16.85-.33.46-1.66,1.14-2.2,1.08s-1.62-.75-1.95-1.19l-6.01-7.99-15.41-22.47c4.81.94,8.2,3.36,12.11,5.49,3.9,2.13,7.17,5.09,10.32,8.23Z"/>
  <path d="M362.55,592.02c-4.43-2.92-5.09-7.75-3.32-12.17,1.09-2.72,3.32-5.03,5.34-7.38,6.39-4.95,12.64-10.21,21.57-12.28l-18.77,26.67c-1.3,1.85-2.87,3.4-4.82,5.17Z"/>
  <path d="M733.04,571.89c-5.95-1.36-10.52-6.83-11.16-12.74-.45-4.22,3.69-6.85,7.5-6.6s6.96,1.91,9.04,4.33c2.53,2.94,3.2,6.8,2.13,10.5-.89,3.08-3.64,5.4-7.53,4.51Z"/>
  <path d="M351.24,555.71c2.8,4.32-1.82,12.09-8.23,15.52-2.27,1.21-5.09,1.04-7.19-.35-1.67-1.1-3.17-3.44-3.18-5.92-.04-6.37,4.34-10.81,10.43-12.38,2.75-.71,6.39.38,8.17,3.13Z"/>
  <path d="M391.76,734.45c-3.14-.2-6.21-1.47-7.96-3.52-2.17-2.56-3.11-5.91-2.27-9.11,1-3.81,4.61-4.95,8.11-3.97s6.63,2.32,8.69,5.27c1.65,2.36,1.93,5.3.62,7.6-1.46,2.57-3.96,3.92-7.19,3.72Z"/>
  <path d="M690.69,730.05c-2.58,4.51-11.05,6.27-15.07,1.92-1.59-1.72-1.81-4.84-.97-7.2,2.13-6.01,13.53-10.13,16.64-4.49,1.71,3.11,1.2,6.61-.6,9.77Z"/>
  <path d="M375.81,694.32c-4.52.56-8.66-3.11-8.08-7.28.37-2.69,1.78-5.58,3.67-7.19,3.26-2.78,8.21-3.23,10.94.12,1.96,2.4,1.82,5.99.5,8.98-.97,2.2-3.51,4.94-7.04,5.38Z"/>
  <path d="M694.73,693.25c-4.14-2.69-6.12-8.29-3.91-12.57,1.63-3.15,5.7-3.68,8.82-2.38,4.01,1.67,6.68,5.97,6.28,10.49-.19,2.17-2.27,4.15-3.74,4.84-2.29,1.06-5.15,1.12-7.44-.37Z"/>
  <path d="M588.78,346.94c-2.27,3.5-6.76,4.03-9.86,2.05-3.27-2.08-4.31-6.51-2.36-9.91,2.11-3.69,6.57-5.01,10.08-2.94s4.71,6.84,2.14,10.8Z"/>
  <path d="M554.09,287.16c3.54,7.51-1.11,15.91-5.49,15.74-4-.15-7.01-10.8-2.6-17.2.73-1.06,2.98-1.83,4.35-1.6s3.06,1.62,3.74,3.07Z"/>
  <circle cx="490.83" cy="342.59" r="7.38"/>
  <path d="M355.44,299.44c-1.89-2.9-2.47-6.54-1.59-9.69,1.27-4.55,5.83-6.99,10.33-6.49,2.26.25,4.16,2.03,3.78,4.36-1.03,6.26-5.72,10.85-12.51,11.82Z"/>
  <path d="M719.02,299.46c-6.18-.61-11.18-4.93-12.81-10.59-.8-2.79.82-5.32,3.82-5.67,5.07-.59,10.48,3.61,10.66,9.12.07,2.15-.79,4.46-1.67,7.14Z"/>
  <path d="M527.33,285.39c4.49,4.77,2.19,14.78-.33,16.72-2.26,1.74-4.94.09-6.19-1.88-4.93-7.78-1.12-15.62,2.48-16.17,1.12-.17,3.32.56,4.04,1.33Z"/>
  <path d="M420.24,740.77c-2.96,1.23-6.23.61-8.93-.92-2.48-1.4-3.38-3.26-3.41-6.18-.02-2.76,1.46-6.29,4.76-6.14,4.03.18,7.78,3,9.71,6.29,1.59,2.71.72,5.76-2.13,6.95Z"/>
  <path d="M663.62,739.02c-4.51,3.83-11.16,2.58-12.79-.85-1.74-3.68,3.92-10.34,10.12-10.64,3.23-.16,4.88,3.37,4.8,6.18-.06,2.01-.52,3.95-2.13,5.32Z"/>
</svg>